<svg width="30" height="28" viewBox="0 0 30 28" fill="none" xmlns="http://www.w3.org/2000/svg">
<path d="M10.1843 6.93118L10.2271 7.79353C8.51462 8.11124 6.88775 8.33817 5.26088 8.70127C4.31901 8.9282 3.37714 9.33668 2.47808 9.74517C2.17839 9.88133 1.83589 10.3352 1.87871 10.6075C1.92152 10.9706 2.2212 11.4699 2.52089 11.5606C4.06214 12.1053 5.60338 12.6953 7.23025 12.9676C11.5543 13.7846 15.8783 13.6938 20.2452 13.3307C22.5571 13.1038 24.8689 12.7861 26.9668 11.7422C27.1808 11.6514 27.3949 11.5606 27.6089 11.4245C28.0799 11.0614 28.0799 10.2898 27.6517 9.88133C27.4377 9.69978 27.2236 9.56362 27.0524 9.51823C24.9546 8.9282 22.8568 8.47434 20.7161 7.97508C20.5021 7.92969 20.288 7.92969 19.9883 7.88431L20.1168 6.79502C22.2146 7.24889 24.3124 7.61199 26.3246 8.20201C29.0217 9.01898 29.5355 10.0175 29.0217 12.9676C27.9086 19.6395 22.5571 24.6774 16.178 25.2675C8.7715 25.9483 2.17839 20.5926 0.979646 13.24C0.936833 12.8769 0.894021 12.5138 0.851209 12.1507C0.722772 10.5167 1.62183 9.01898 3.07745 8.42895C5.34651 7.47582 7.744 7.2035 10.1843 6.93118ZM28.0371 12.6045C19.2605 15.2824 10.5696 15.3278 1.87871 12.6045C2.17839 18.3233 7.65837 24.269 14.7652 24.3597C22.0433 24.4959 27.7374 18.2325 28.0371 12.6045Z" fill="#282828"/>
<path d="M7.74399 25.7667C8.00086 25.5398 8.21492 25.4036 8.4718 25.2221C9.32805 26.3568 10.4412 26.5383 11.7255 26.5383C13.8662 26.4929 16.0068 26.4929 18.1474 26.5383C19.389 26.5837 20.5021 26.3114 21.3583 25.2221C21.6152 25.4036 21.7864 25.4944 22.0005 25.676C21.9577 25.8121 21.9577 25.9029 21.9149 25.9483C21.1014 26.9922 20.0311 27.4914 18.7896 27.4914C15.9212 27.4914 13.0527 27.446 10.1415 27.3553C9.19961 27.3553 8.4718 26.6745 7.74399 25.7667Z" fill="#282828"/>
<path d="M18.1474 7.43043C17.7621 6.65885 17.5052 5.88728 17.0771 5.25186C16.178 3.93564 16.3065 2.07478 17.4624 1.03088C17.5908 0.894721 17.8477 0.940108 18.0618 0.849335C18.1046 1.07627 18.1902 1.34859 18.1474 1.57552C18.0618 1.84785 17.8477 2.07478 17.7193 2.30172C17.2912 3.16407 17.2483 3.93564 17.8905 4.7526C19.2605 6.61347 19.2605 8.47433 17.8905 10.0175C17.7193 10.199 17.334 10.199 17.0771 10.2898C17.1199 10.0175 17.1199 9.69978 17.2055 9.42745C17.4196 8.83742 17.7621 8.20201 18.1474 7.43043Z" fill="#282828"/>
<path d="M15.1505 1.25782C14.9793 1.53014 14.8508 1.75708 14.7224 1.93862C13.909 3.30023 13.909 3.70871 14.7652 4.93416C15.964 6.65886 15.964 8.51972 14.6796 10.0175C14.5083 10.2444 14.123 10.2898 13.8662 10.3806C13.909 10.0629 13.8233 9.69977 13.9518 9.47284C15.0221 7.79353 15.0221 6.79502 13.7805 5.20648C12.8815 4.02642 13.1383 1.75708 14.2943 0.940115C14.4227 0.849341 14.6368 0.803954 14.7652 0.849341C14.9365 0.940114 15.0221 1.12166 15.1505 1.25782Z" fill="#282828"/>
<path d="M12.0253 0.622406C12.0681 0.940114 12.1965 1.21243 12.1537 1.43937C12.0681 1.71169 11.854 1.93862 11.7256 2.21095C11.2118 3.0733 11.2118 3.84487 11.854 4.75261C13.1812 6.47731 13.1384 8.51972 11.854 9.92671C11.6828 10.1083 11.2975 10.1536 10.9978 10.2444C11.0406 9.9721 10.9978 9.609 11.1262 9.38207C12.1965 7.65737 12.1965 6.70424 10.9978 5.1157C10.0987 3.93565 10.3128 1.84785 11.4687 0.940114C11.5543 0.849341 11.6828 0.803953 12.0253 0.622406Z" fill="#282828"/>
<path d="M28.0371 12.6045C27.7374 18.2325 22.0433 24.4959 14.7652 24.3597C7.65839 24.269 2.17841 18.3233 1.87872 12.5591C10.5696 15.3277 19.2605 15.2824 28.0371 12.6045Z" fill="#F1F1F1"/>
</svg>
