<svg width="24" height="27" viewBox="0 0 24 27" fill="none" xmlns="http://www.w3.org/2000/svg">
<path d="M23.9953 13.822C23.9953 15.7949 23.9953 17.8148 23.9953 19.7877C23.9953 23.2168 21.6469 26.0822 18.3315 26.6929C17.9171 26.7868 17.4566 26.7868 17.0422 26.7868C13.865 26.7868 10.6877 26.7868 7.46443 26.7868C4.01091 26.7398 1.34019 24.5321 0.649487 21.056C0.557393 20.6333 0.511345 20.2105 0.511345 19.7407C0.511345 15.7949 0.511345 11.8491 0.511345 7.90335C0.511345 4.38031 2.76765 1.56188 6.17512 0.857277C6.63559 0.763329 7.09606 0.763329 7.55652 0.763329C10.6877 0.763329 13.865 0.763329 16.9961 0.763329C20.4497 0.763329 23.1664 2.9711 23.8571 6.44716C23.9492 6.86993 23.9953 7.29269 23.9953 7.71545C23.9953 9.7823 23.9953 11.8022 23.9953 13.822ZM12.2994 17.0163C12.2994 17.0163 12.2994 17.0632 12.2994 17.0163C14.0031 17.0163 15.7068 17.0163 17.4566 17.0163C20.3115 17.0163 22.752 14.5736 22.9362 11.5673C23.0283 10.252 23.0283 8.93677 22.9822 7.62151C22.8901 4.28637 20.4497 1.84373 17.2264 1.79675C13.865 1.74978 10.5035 1.74978 7.18815 1.79675C4.83976 1.79675 2.76764 3.34689 1.98485 5.60163C1.75461 6.25926 1.61647 6.96387 1.61647 7.62151C1.57042 9.12467 1.52438 10.6748 1.70857 12.178C2.07694 14.8555 4.47138 16.9223 7.1421 16.9693C8.84584 17.0632 10.5496 17.0163 12.2994 17.0163ZM1.57043 14.9964C1.57043 16.6875 1.57043 18.3785 1.57043 20.0226C1.57043 20.3514 1.61647 20.6802 1.66252 21.009C2.12299 23.4987 4.37929 25.6595 6.81977 25.7064C10.4575 25.7534 14.0491 25.7534 17.6868 25.7064C20.2655 25.6595 22.752 23.2638 22.9362 20.6333C23.0283 18.8013 22.9822 16.9223 22.9822 15.0903C22.9822 15.0434 22.9362 14.9964 22.9362 14.9494C22.8441 15.0434 22.752 15.1373 22.706 15.2313C21.3246 17.1572 19.4366 18.1436 17.0882 18.1436C13.911 18.1436 10.7338 18.1436 7.55652 18.1436C6.22116 18.1436 4.9779 17.8618 3.82672 17.1102C2.95183 16.4996 2.26113 15.7949 1.57043 14.9964Z" fill="#282828"/>
<path d="M1.57042 14.9964C2.26112 15.7949 2.95183 16.5465 3.82672 17.0632C4.97789 17.8148 6.22116 18.0967 7.55652 18.0967C10.7338 18.0967 13.911 18.0967 17.0882 18.0967C19.4366 18.0967 21.3245 17.1102 22.706 15.1843C22.752 15.0903 22.8441 14.9964 22.9362 14.9024C22.9822 14.9964 22.9822 15.0434 22.9822 15.0434C22.9822 16.8753 23.0283 18.7543 22.9362 20.5863C22.798 23.1698 20.2655 25.6125 17.6868 25.6594C14.0491 25.7064 10.4575 25.7064 6.81977 25.6594C4.37928 25.6125 2.12298 23.4987 1.66251 20.9621C1.61646 20.6332 1.57042 20.3044 1.57042 19.9756C1.57042 18.3315 1.57042 16.6405 1.57042 14.9964Z" fill="#F1F1F1"/>
<path d="M12.2994 13.6811C11.1942 13.6811 10.1352 13.7281 9.03003 13.6811C7.46443 13.5872 6.12907 12.3189 5.94489 10.7687C5.85279 9.87624 5.80674 8.93677 5.99093 8.04427C6.31326 6.25926 7.74072 5.17886 9.62864 5.13189C11.3324 5.13189 13.0361 5.13189 14.7859 5.13189C17.0882 5.13189 18.6078 6.729 18.6078 9.07769C18.6078 9.68835 18.6078 10.299 18.4697 10.9097C18.1013 12.6477 16.7659 13.7281 15.0161 13.7751C14.0952 13.7751 13.2203 13.7751 12.2994 13.7751C12.2994 13.7281 12.2994 13.7281 12.2994 13.6811ZM17.3645 11.0036C14.878 10.346 13.4045 8.7019 12.7598 6.16531C12.4375 6.16531 12.1152 6.11834 11.7928 6.16531C11.6547 6.16531 11.4705 6.35321 11.4245 6.44716C11.3324 7.19874 11.1942 7.95032 11.2403 8.7019C11.3784 10.393 12.7598 12.084 14.3715 12.5538C15.7068 12.9765 16.9501 12.3189 17.3645 11.0036ZM10.4114 6.16531C9.99702 6.16531 9.62864 6.16531 9.26026 6.16531C8.10909 6.21229 7.00396 7.29269 6.91187 8.46703C6.86582 9.07769 6.86582 9.73532 6.91187 10.346C6.95792 10.8157 7.14211 11.2385 7.46443 11.6143C7.51048 11.5203 7.51048 11.5203 7.51048 11.4734C7.78676 9.82927 8.47747 8.46703 9.99702 7.66848C10.0891 7.6215 10.1352 7.52755 10.1352 7.43361C10.2733 7.05782 10.3193 6.63505 10.4114 6.16531ZM17.5027 9.87624C17.871 6.96387 16.1213 5.78952 13.911 6.21229C13.9571 7.8094 15.891 9.7823 17.5027 9.87624ZM10.2273 8.79585C9.26027 9.35953 8.61561 10.5809 8.47747 11.8961C8.43142 12.5538 8.52351 12.6477 9.16817 12.6947C10.1352 12.6947 11.0561 12.6947 12.0231 12.6947C12.1152 12.6947 12.2073 12.6477 12.3915 12.6477C11.1482 11.6143 10.5035 10.346 10.2273 8.79585Z" fill="#282828"/>
<path d="M17.3645 11.0036C16.9501 12.3189 15.7068 12.9295 14.3715 12.5538C12.7598 12.084 11.3784 10.4399 11.2403 8.7019C11.1942 7.95032 11.3324 7.19874 11.4245 6.44716C11.4245 6.35321 11.6547 6.16532 11.7928 6.16532C12.1152 6.11834 12.4835 6.16532 12.7598 6.16532C13.4045 8.7019 14.878 10.346 17.3645 11.0036Z" fill="#F1F1F1"/>
<path d="M10.4114 6.16531C10.3193 6.63505 10.2733 7.05782 10.1812 7.43361C10.1812 7.52755 10.0891 7.6215 10.0431 7.66848C8.52351 8.46703 7.83281 9.82927 7.55652 11.4734C7.55652 11.5203 7.51048 11.5203 7.51048 11.6143C7.1421 11.2385 6.95791 10.8157 6.95791 10.346C6.91187 9.73532 6.91187 9.07769 6.95791 8.46703C7.05001 7.29269 8.10909 6.21229 9.30631 6.16531C9.62863 6.16531 9.99701 6.16531 10.4114 6.16531Z" fill="#F1F1F1"/>
<path d="M17.5027 9.87625C15.891 9.7823 13.957 7.8094 13.911 6.2123C16.1212 5.8365 17.871 7.01085 17.5027 9.87625Z" fill="#F1F1F1"/>
<path d="M10.2272 8.79585C10.5035 10.346 11.1482 11.6143 12.3915 12.6477C12.2073 12.6947 12.1152 12.6947 12.0231 12.6947C11.0561 12.6947 10.1351 12.6947 9.16816 12.6947C8.52351 12.6947 8.43141 12.5537 8.47746 11.8961C8.6156 10.5808 9.26026 9.35953 10.2272 8.79585Z" fill="#F1F1F1"/>
</svg>
