<svg width="33" height="28" viewBox="0 0 33 28" fill="none" xmlns="http://www.w3.org/2000/svg">
<path d="M11.6355 4.86359C11.6355 5.19241 11.6355 5.47425 11.6355 5.70912C6.89269 6.31978 5.28105 9.74887 4.31407 13.9295C12.6025 13.9295 20.891 13.9295 29.1794 13.9295C29.4557 10.2656 25.9101 6.08491 22.3645 5.85004C22.2263 5.85004 22.0882 5.80307 21.95 5.80307C21.95 5.47425 21.95 5.23938 21.95 4.95754C25.2194 4.86359 28.2585 7.44715 29.4096 10.7353C29.6859 11.5808 29.9622 12.4734 30.2385 13.3189C30.3766 13.7886 30.5608 14.0235 31.1134 14.0235C32.0804 14.0705 32.8632 14.869 32.8632 15.8085C32.8632 16.701 32.0804 17.5465 31.0673 17.5935C30.5608 17.5935 30.3306 17.8284 30.1924 18.2981C29.778 19.4724 29.3636 20.6468 28.9492 21.8211C27.6599 25.3442 24.9431 27.3171 21.2133 27.3171C18.3123 27.3171 15.4114 27.3171 12.5104 27.3171C8.87271 27.3171 6.15594 25.4381 4.82058 22.009C4.40616 20.9286 3.94569 19.8013 3.62336 18.6739C3.39313 17.9223 3.0708 17.5465 2.288 17.4995C1.41311 17.4526 0.952641 16.7949 0.814501 15.9964C0.722407 15.2448 1.13683 14.6811 1.73544 14.3053C1.91963 14.2114 2.14986 14.0705 2.33405 14.1174C3.25499 14.2584 3.43918 13.6947 3.62336 12.9901C3.8536 12.0976 4.12988 11.252 4.45221 10.4065C5.78757 7.11834 8.04387 5.14544 11.6355 4.86359ZM29.3175 17.5935C26.785 17.5935 24.3905 17.5935 22.0421 17.5935C21.4435 17.5935 21.1672 17.7344 20.937 18.3451C20.5226 19.5194 19.6016 20.1301 18.3584 20.1771C17.3453 20.1771 16.3323 20.1771 15.3653 20.1771C14.03 20.1771 13.109 19.5664 12.6946 18.2981C12.5104 17.7814 12.2341 17.6405 11.7276 17.6405C9.51737 17.6405 7.30712 17.6405 5.14291 17.6405C4.91268 17.6405 4.72849 17.6874 4.31407 17.7344C4.86663 19.2846 5.28105 20.8347 5.97176 22.2439C7.26107 24.9684 9.33318 26.4246 12.4183 26.3776C15.5956 26.3306 18.8188 26.3776 22.0421 26.3306C22.7789 26.3306 23.5156 26.0958 24.2063 25.8139C27.6138 24.2638 28.2585 20.9286 29.3175 17.5935ZM16.8388 15.0099C14.5365 15.0099 12.2802 15.0099 9.97784 15.0099C7.5834 15.0099 5.18896 15.0099 2.79452 15.0099C2.288 15.0099 1.82753 15.1509 1.82753 15.7615C1.82753 16.3252 2.19591 16.701 2.79452 16.748C3.02475 16.748 3.25499 16.748 3.43918 16.748C12.3723 16.748 21.3054 16.748 30.2385 16.748C30.4687 16.748 30.745 16.7949 30.9752 16.701C31.2515 16.607 31.6659 16.3722 31.6659 16.1843C31.6659 15.8555 31.5278 15.4327 31.2976 15.1509C31.1134 14.963 30.745 15.0099 30.4227 15.0099C25.9101 15.0099 21.3514 15.0099 16.8388 15.0099ZM20.1082 17.6874C17.8519 17.6874 15.6877 17.6874 13.5695 17.6874C13.7537 18.6739 14.2602 19.0967 15.1811 19.1436C16.1942 19.1906 17.2533 19.1436 18.2663 19.1436C19.1412 19.1436 19.6937 18.6269 20.1082 17.6874Z" fill="#282828"/>
<path d="M13.063 9.60794C12.8788 9.46702 12.6486 9.37307 12.6025 9.18518C12.5565 8.99728 12.6486 8.76242 12.7407 8.57452C13.4314 7.68202 13.7537 6.74254 13.1551 5.66214C12.9709 5.33333 12.7407 5.05149 12.5104 4.76964C11.6816 3.64227 11.9579 1.76332 13.109 1.01174C13.2472 0.91779 13.5695 0.91779 13.6616 1.01174C13.7537 1.10568 13.7537 1.38753 13.7076 1.6224C13.6616 1.76332 13.5234 1.90424 13.4314 2.04516C12.7867 3.12556 12.7867 3.50135 13.5234 4.4878C14.7207 6.13188 14.7207 7.82294 13.5234 9.13821C13.4314 9.3261 13.2472 9.46702 13.063 9.60794Z" fill="#282828"/>
<path d="M16.8388 0.776871C16.9309 1.05871 17.1151 1.24661 17.1151 1.48148C17.1151 1.6224 16.9309 1.81029 16.7928 1.95122C16.1021 3.03161 16.1021 3.45438 16.8388 4.4878C17.99 6.08491 17.99 7.82294 16.7928 9.1382C16.6086 9.3261 16.2402 9.3261 16.01 9.37307C16.056 9.09123 15.9639 8.71544 16.1021 8.52755C17.0691 7.21228 17.0691 6.2728 15.9639 5.05148C14.6286 3.5953 15.4114 2.13911 16.2863 1.05871C16.4705 0.964765 16.6086 0.964766 16.8388 0.776871Z" fill="#282828"/>
<path d="M20.4305 0.729897C20.4765 1.05871 20.5686 1.34056 20.5226 1.52845C20.4765 1.71635 20.2923 1.85727 20.2002 1.99819C19.5095 3.07859 19.5556 3.4074 20.2923 4.53478C21.4435 6.17886 21.4435 7.86991 20.2463 9.18518C20.1082 9.37308 19.7398 9.37308 19.5095 9.42005C19.5095 9.13821 19.4175 8.76242 19.5556 8.57452C20.5686 7.02439 20.5686 6.31978 19.4635 4.72267C18.6347 3.54832 18.8649 1.85727 19.97 1.01174C20.0621 0.964766 20.1542 0.917792 20.4305 0.729897Z" fill="#282828"/>
<path d="M16.8388 15.0099C21.3514 15.0099 25.9101 15.0099 30.4227 15.0099C30.6989 15.0099 31.1134 14.963 31.2976 15.1509C31.5278 15.3857 31.712 15.8555 31.6659 16.1843C31.6659 16.3722 31.2515 16.607 30.9752 16.701C30.745 16.7949 30.4687 16.748 30.2385 16.748C21.3054 16.748 12.3723 16.748 3.43917 16.748C3.20894 16.748 2.9787 16.748 2.79452 16.748C2.19591 16.701 1.82753 16.3722 1.82753 15.7615C1.82753 15.1509 2.288 15.0099 2.79452 15.0099C5.18896 15.0099 7.58339 15.0099 9.97783 15.0099C12.2802 15.0099 14.5365 15.0099 16.8388 15.0099Z" fill="#F1F1F1"/>
<path d="M20.1082 17.6874C19.6937 18.6269 19.1872 19.1436 18.2202 19.1436C17.2072 19.1436 16.1481 19.1436 15.1351 19.1436C14.2142 19.0967 13.7537 18.6739 13.5235 17.6874C15.6877 17.6874 17.8058 17.6874 20.1082 17.6874Z" fill="#F1F1F1"/>
</svg>
