<svg width="21" height="28" viewBox="0 0 21 28" fill="none" xmlns="http://www.w3.org/2000/svg">
<path d="M8.97565 7.4424C8.88915 12.3354 8.62967 16.1891 6.85655 19.7397C6.72681 19.9995 6.77005 20.3459 6.8133 20.6057C7.11603 21.9914 7.41876 23.3337 7.76473 24.7193C7.98097 25.6286 7.80798 26.408 7.07278 26.9709C6.33758 27.5338 5.55914 27.4472 4.7807 27.0142C4.60771 26.9276 4.26173 26.9276 4.0455 27.0575C3.26705 27.4472 2.53185 27.4905 1.8399 26.9709C1.10471 26.408 0.888472 25.6719 1.10471 24.8059C1.45068 23.4203 1.79666 22.078 2.05614 20.6923C2.14263 20.3459 2.14263 19.9129 2.01289 19.6531C0.62899 17.0984 0.110027 14.2839 0.0667799 11.426C0.023533 8.43831 0.196521 5.40728 0.369509 2.41954C0.456003 0.947325 1.40743 0.167916 2.87783 0.124616C3.91576 0.0813151 4.95368 0.0813151 5.99161 0.124616C7.37551 0.167916 8.1972 0.774122 8.37019 2.15974C8.71617 4.28146 8.88915 6.35989 8.97565 7.4424ZM0.974965 4.62787C0.974965 5.92688 0.974965 7.05269 0.974965 8.22181C0.974965 8.39501 1.23445 8.61151 1.40743 8.65481C3.44004 9.30432 5.51589 9.26102 7.5485 8.61151C7.72149 8.56821 7.98097 8.35171 7.98097 8.17851C7.98097 7.00939 7.93772 5.84028 7.89447 4.58457C5.51589 5.23407 3.39679 5.27737 0.974965 4.62787ZM0.931719 9.52082C1.01821 10.7332 1.10471 11.7724 1.14795 12.7684C1.14795 13.3313 1.40743 13.5478 1.9264 13.6777C3.65627 14.1107 5.38615 14.1107 7.07278 13.6777C7.33226 13.6344 7.67824 13.4179 7.72149 13.2447C7.89447 12.0323 7.93772 10.8198 8.06746 9.43422C5.60239 10.2136 3.35355 10.2136 0.931719 9.52082ZM7.50525 14.8035C5.4294 14.8035 3.44004 14.8035 1.36419 14.8035C1.58042 15.6262 1.79666 16.5355 2.09939 17.3582C2.87783 19.6098 3.05082 19.6964 5.38615 19.4799C5.60239 19.4799 5.90512 19.35 5.99161 19.1768C6.77005 17.8345 7.28902 16.3623 7.50525 14.8035ZM4.52121 1.12053C4.00225 1.12053 3.52653 1.07723 3.00757 1.12053C2.6616 1.16383 2.31562 1.20713 2.05614 1.33703C1.23445 1.77003 1.23445 2.59274 1.27769 3.32885C1.32094 3.58865 1.96964 3.93506 2.35887 3.93506C3.65627 4.02166 4.99693 4.10826 6.29434 3.97836C7.80798 3.84846 8.11071 3.15565 7.33226 1.81333C7.11603 1.46693 6.55382 1.20713 6.0781 1.12053C5.60239 1.03393 5.04018 1.12053 4.52121 1.12053ZM4.99693 23.2904C4.99693 24.0265 4.99693 24.7626 4.99693 25.4987C4.99693 26.1049 5.29966 26.5379 5.99161 26.4946C6.68356 26.4513 7.02954 25.975 6.89979 25.3255C6.59707 23.8533 6.25109 22.3811 5.86187 20.9088C5.81862 20.7356 5.51589 20.649 5.34291 20.5191C5.21317 20.649 5.04018 20.8223 5.04018 20.9955C4.99693 21.7749 4.99693 22.511 4.99693 23.2904ZM3.959 23.3337C3.959 22.5976 4.00225 21.8615 3.959 21.1254C3.959 20.9088 3.74277 20.6923 3.61303 20.4758C3.44004 20.649 3.13731 20.7789 3.09406 20.9955C2.74809 22.3811 2.40211 23.7667 2.09939 25.1523C1.96965 25.8451 2.35887 26.408 2.96432 26.4513C3.65628 26.4946 4.00225 26.1049 4.00225 25.4121C3.959 24.7193 3.959 24.0265 3.959 23.3337Z" fill="#282828"/>
<path d="M11.0083 20.0428C11.138 15.1932 11.3975 11.2961 13.2571 7.70221C13.3869 7.4424 13.3436 7.096 13.3004 6.8362C12.9977 5.45058 12.6517 4.10826 12.349 2.72265C12.1327 1.85664 12.349 1.16383 13.0409 0.600924C13.6896 0.0813184 14.4248 0.124618 15.2033 0.427722C15.4627 0.514323 15.852 0.514323 16.1114 0.427722C16.8899 0.124618 17.5818 0.0813184 18.2738 0.600924C18.9657 1.16383 19.1387 1.89994 18.9657 2.72265C18.6198 4.10826 18.2738 5.45058 18.0143 6.8362C17.9278 7.1826 17.9278 7.61561 18.0576 7.87541C19.528 10.56 20.0037 13.4612 20.0902 16.4489C20.1767 19.2634 20.0037 22.078 19.7874 24.8925C19.6577 26.841 18.7928 27.4905 16.8466 27.4905C15.8087 27.4905 14.7708 27.5338 13.7329 27.4472C12.5652 27.3606 11.9165 26.8843 11.7867 25.7152C11.311 23.5069 11.138 21.2986 11.0083 20.0428ZM11.9165 18.1376C14.4248 17.4448 16.7169 17.4448 19.1387 18.0943C19.009 16.752 18.9657 15.5396 18.7928 14.3705C18.7495 14.154 18.4035 13.8942 18.1441 13.8509C16.3709 13.3746 14.5978 13.3746 12.8247 13.8942C12.6084 13.9375 12.2625 14.1973 12.2625 14.3705C12.1327 15.5396 12.0462 16.7087 11.9165 18.1376ZM19.1387 22.9873C19.1387 21.6883 19.182 20.5625 19.0955 19.4799C19.0955 19.3067 18.7928 19.0036 18.5765 18.9603C16.5872 18.3541 14.5978 18.3974 12.6084 18.9603C12.3922 19.0469 12.0462 19.3067 12.0462 19.4799C12.0462 20.6058 12.1327 21.7316 12.176 22.9873C14.4681 22.3811 16.6304 22.3378 19.1387 22.9873ZM18.5333 12.6818C18.49 12.7251 18.5765 12.6385 18.5765 12.5952C18.317 11.1229 18.0143 9.86723 17.1061 8.39502C17.0196 8.26511 16.8034 8.13521 16.6737 8.09191C14.641 7.65891 13.9923 8.00531 13.3004 9.99713C12.9977 10.9064 12.7814 11.8591 12.5219 12.6818C14.5546 12.6818 16.4574 12.6818 18.5333 12.6818ZM15.5492 26.4513C15.5492 26.4946 15.5492 26.4946 15.5492 26.4513C15.9385 26.4946 16.3277 26.4946 16.7169 26.4946C18.1873 26.4946 18.663 26.0616 18.836 24.5894C18.8792 24.0698 18.7063 23.8966 18.2738 23.7667C16.5007 23.3337 14.7275 23.3337 12.9544 23.81C12.7382 23.8533 12.4787 23.9832 12.4355 24.1564C12.0462 24.9358 12.9112 26.408 13.7761 26.4946C14.2951 26.5379 14.9005 26.4513 15.5492 26.4513ZM16.025 4.28147C16.025 5.01758 15.9817 5.79699 16.025 6.53309C16.025 6.7063 16.2412 6.9228 16.3709 7.096C16.5439 6.9228 16.8466 6.8362 16.9331 6.61969C17.2791 5.23408 17.6251 3.84846 17.9278 2.46285C18.1008 1.68344 17.7116 1.16383 17.0629 1.12053C16.4142 1.07723 16.0682 1.46693 16.025 2.24634C16.025 2.93915 16.025 3.63196 16.025 4.28147ZM15.1168 4.36807C15.1168 3.63196 15.1168 2.89585 15.1168 2.15974C15.1168 1.51023 14.7708 1.07723 14.0788 1.12053C13.3869 1.20713 13.0842 1.68344 13.2139 2.33294C13.5166 3.80516 13.8626 5.23408 14.2518 6.66299C14.2951 6.8362 14.5978 6.9661 14.7708 7.096C14.9005 6.9228 15.1168 6.7496 15.1168 6.53309C15.1168 5.84029 15.1168 5.10418 15.1168 4.36807Z" fill="#282828"/>
<path d="M0.931641 9.52082C3.39672 10.2136 5.60231 10.2136 8.06739 9.47752C7.93765 10.8631 7.8944 12.0756 7.72141 13.288C7.67816 13.4612 7.33219 13.6777 7.07271 13.721C5.34283 14.154 3.61295 14.154 1.92632 13.721C1.40736 13.5911 1.14788 13.3746 1.14788 12.8117C1.10463 11.7725 1.01813 10.7332 0.931641 9.52082Z" fill="#F1F1F1"/>
<path d="M4.52118 1.12052C5.04014 1.12052 5.60235 1.03392 6.12131 1.16383C6.55378 1.25043 7.15924 1.51023 7.37548 1.85663C8.15392 3.15565 7.85119 3.84846 6.33755 4.02166C5.04014 4.15156 3.69949 4.06496 2.40208 3.97836C2.01285 3.93506 1.3209 3.63195 1.3209 3.37215C1.23441 2.63604 1.27765 1.81333 2.09935 1.38033C2.40208 1.25043 2.74805 1.16383 3.05078 1.16383C3.5265 1.07722 4.00221 1.12052 4.52118 1.12052Z" fill="#F1F1F1"/>
<path d="M11.9164 18.1376C12.0461 16.752 12.1326 15.5396 12.2624 14.3705C12.3056 14.1973 12.6083 13.9375 12.8246 13.8942C14.5977 13.4179 16.3708 13.3746 18.1439 13.8509C18.4034 13.9375 18.7494 14.154 18.7926 14.3705C18.9656 15.5396 19.0089 16.752 19.1386 18.0943C16.7168 17.4448 14.4247 17.4015 11.9164 18.1376Z" fill="#F1F1F1"/>
<path d="M15.5492 26.4513C14.9438 26.4513 14.2951 26.4946 13.6896 26.4513C12.8247 26.3647 12.003 24.8925 12.3489 24.1131C12.4354 23.9399 12.6949 23.81 12.8679 23.7667C14.641 23.2904 16.4142 23.2904 18.1873 23.7234C18.663 23.8533 18.836 24.0265 18.7495 24.5461C18.5765 26.0183 18.1008 26.4513 16.6304 26.4513C16.3277 26.4946 15.9384 26.4946 15.5492 26.4513C15.5492 26.4946 15.5492 26.4946 15.5492 26.4513Z" fill="#F1F1F1"/>
</svg>
