<svg width="32" height="28" viewBox="0 0 32 28" fill="none" xmlns="http://www.w3.org/2000/svg">
<path d="M6.92517 5.1097C7.3441 3.40025 8.34953 2.28912 10.0252 1.90449C11.8266 1.51986 13.251 2.11817 14.2145 3.5712C15.0105 3.31478 15.7646 3.05836 16.5186 2.80195C16.6443 2.75921 16.8119 2.631 16.8957 2.54553C17.5241 1.90449 18.1944 1.26345 18.8646 0.622406C19.9957 1.77628 20.8336 3.01563 21.3363 4.59687C22.8026 3.31478 24.5202 2.631 26.3216 2.28911C26.6567 3.01563 26.95 4.51139 26.7824 6.81915C28.3743 6.60546 29.9662 6.69094 31.5582 7.1183C31.1392 9.04142 30.4271 10.7936 29.1284 12.2039C28.9608 12.3748 28.8351 12.7167 28.8351 12.9731C28.7932 15.4946 27.9554 17.7169 26.3635 19.5972C24.1431 22.2042 21.3363 23.6999 18.0687 24.341C13.628 25.1957 9.39685 24.5546 5.5846 22.0332C3.02914 20.3238 1.22774 18.016 0.599348 14.8535C0.515563 14.4689 0.47367 14.0843 0.47367 13.6569C0.431777 12.9731 0.431778 12.2466 0.347992 11.5629C0.18042 9.89615 1.31153 8.27217 2.90346 7.93028C3.2386 7.84481 3.40617 7.7166 3.53185 7.37471C4.07646 6.04989 5.03999 5.23791 6.46435 5.15244C6.54814 5.15244 6.63192 5.15244 6.71571 5.1097C6.79949 5.15244 6.84139 5.15244 6.92517 5.1097ZM2.90346 17.6741C2.90346 17.7596 2.90346 17.8451 2.94535 17.8878C3.02913 18.016 3.11292 18.1442 3.19671 18.2724C4.62106 20.2383 6.46435 21.6486 8.68467 22.546C11.4915 23.6999 14.424 23.9991 17.3984 23.4862C20.666 22.8879 23.4729 21.4776 25.6513 18.8707C25.9445 18.5288 26.1959 18.1442 26.4891 17.7169C18.5714 17.6741 10.7374 17.6741 2.90346 17.6741ZM27.9973 13.6142C19.0741 13.6142 10.3185 13.6142 1.43721 13.6142C1.64667 14.4689 1.85613 15.2809 2.0656 16.0929C2.14938 16.5202 2.40074 16.6485 2.81967 16.6485C10.7374 16.6485 18.6552 16.6485 26.531 16.6485C26.6148 16.6485 26.7405 16.6912 26.7824 16.6485C26.9081 16.563 27.1175 16.5202 27.1594 16.392C27.4527 15.4518 27.704 14.5971 27.9973 13.6142ZM8.30764 12.503C8.30764 12.3748 8.30764 12.2894 8.30764 12.2039C7.97249 10.8791 8.26574 9.7252 8.97792 8.61406C9.35496 8.01576 9.35496 7.80208 8.89414 7.28924C8.72656 7.1183 8.55899 6.90462 8.39142 6.77641C7.63735 6.1781 6.79949 6.00716 5.91974 6.39178C5.03999 6.73367 4.49539 7.46019 4.36971 8.40038C4.32781 8.74227 4.24403 8.87048 3.86699 8.87048C2.23317 8.95595 1.26963 10.0671 1.39531 11.6056C1.43721 12.4176 1.56288 12.5458 2.35885 12.5458C2.52642 12.5458 2.73588 12.5458 2.90346 12.5458C4.66296 12.503 6.46435 12.503 8.30764 12.503ZM13.4605 7.41745C13.3767 7.46019 13.3767 7.46019 13.3348 7.46019C13.2091 7.46019 13.0834 7.46019 12.9577 7.46019C11.8266 7.50292 10.8212 7.88755 10.0671 8.78501C9.27117 9.76794 8.93603 10.8791 9.31306 12.1184C9.39685 12.3748 9.52253 12.503 9.81578 12.503C11.4496 12.503 13.0834 12.503 14.7172 12.503C15.1781 12.503 15.597 12.503 16.1416 12.503C15.3875 11.1782 14.9686 9.81067 14.8429 8.35765C14.7172 6.86188 15.1362 5.49433 15.7227 4.12677C14.3402 4.76781 13.5442 5.83621 13.4605 7.41745ZM30.3433 7.93028C26.154 6.99009 22.0904 9.34058 21.3363 12.503C23.2634 12.503 25.1905 12.503 27.1175 12.503C27.2432 12.503 27.3689 12.4603 27.4946 12.3748C28.9608 11.2637 29.8406 9.7252 30.3433 7.93028ZM18.8646 2.16091C18.7809 2.20364 18.7809 2.20364 18.739 2.20364C15.4713 5.06696 15.0524 8.74227 17.2308 12.2894C17.2727 12.3748 17.3984 12.503 17.4822 12.503C17.8173 12.5458 18.1944 12.503 18.6133 12.503C18.6133 11.9475 18.5714 11.4774 18.6133 11.0073C18.739 9.08416 19.1998 7.28924 20.3309 5.708C20.4147 5.5798 20.4985 5.40885 20.4566 5.28064C20.2052 4.12677 19.6187 3.1011 18.8646 2.16091ZM20.1633 12.503C20.3728 11.9902 20.5822 11.4774 20.8336 11.0073C21.839 9.1269 23.3891 7.93028 25.358 7.20377C25.5256 7.16103 25.7351 6.99009 25.7351 6.86188C25.9445 5.75074 25.9445 4.68234 25.6513 3.5712C20.9593 4.68234 19.3674 8.40038 19.6606 12.503C19.8282 12.503 19.9957 12.503 20.1633 12.503ZM10.0671 7.20377C10.8631 6.94735 11.6591 6.73367 12.4131 6.47726C12.4969 6.43452 12.5807 6.30631 12.6645 6.22084C12.9159 5.75074 13.0834 5.28064 13.3767 4.85328C13.5861 4.55413 13.5442 4.34045 13.3767 4.08403C12.6226 3.05836 11.5753 2.80195 10.4023 2.93016C9.35496 3.05837 8.34953 3.99856 8.09817 5.02423C8.05628 5.15244 8.14007 5.36612 8.22385 5.40885C9.01982 5.79348 9.64821 6.43452 10.0671 7.20377Z" fill="#282828"/>
<path d="M7.38599 25.3666C7.67924 25.1529 7.93059 24.982 8.22384 24.7683C9.10359 25.9222 10.3185 26.1786 11.6591 26.1359C13.8375 26.0931 16.0578 26.1359 18.2362 26.1359C19.4511 26.1359 20.289 25.7512 21.085 24.8111C21.3363 24.982 21.6296 25.1529 21.9228 25.3666C21.1268 26.3923 20.1214 27.1188 18.8646 27.1188C16.0578 27.1615 13.251 27.1615 10.4442 27.1188C9.18738 27.1188 8.22384 26.435 7.38599 25.3666Z" fill="#282828"/>
<path d="M8.30774 12.503C6.46445 12.503 4.66306 12.503 2.90356 12.503C2.73599 12.503 2.52652 12.503 2.35895 12.503C1.56299 12.503 1.4792 12.3748 1.39542 11.5629C1.26974 10.0244 2.23328 8.95595 3.8671 8.82774C4.24413 8.82774 4.32792 8.69953 4.36981 8.35764C4.49549 7.37471 4.9982 6.69093 5.91985 6.34904C6.79959 5.96442 7.63745 6.1781 8.39152 6.73367C8.60099 6.86188 8.72667 7.07556 8.89424 7.2465C9.31317 7.80207 9.31317 8.01575 8.97802 8.57132C8.26584 9.68246 7.9726 10.8791 8.30774 12.1612C8.30774 12.3321 8.30774 12.3748 8.30774 12.503Z" fill="#F1F1F1"/>
<path d="M13.4604 7.41745C13.5442 5.83621 14.3402 4.76781 15.7645 4.1695C15.178 5.53706 14.7591 6.90461 14.8848 8.40038C15.0105 9.85341 15.4294 11.221 16.1835 12.5458C15.6389 12.5458 15.2199 12.5458 14.7591 12.5458C13.1253 12.5458 11.4915 12.5458 9.85764 12.5458C9.56439 12.5458 9.43871 12.4603 9.35492 12.1612C8.97789 10.8791 9.31303 9.76793 10.109 8.82774C10.8631 7.93028 11.8685 7.54566 12.9996 7.50292C13.1253 7.50292 13.251 7.50292 13.3766 7.50292C13.3766 7.46018 13.3766 7.46018 13.4604 7.41745Z" fill="#F1F1F1"/>
<path d="M30.3432 7.93028C29.7986 9.7252 28.9607 11.2637 27.4945 12.3748C27.4107 12.4603 27.2431 12.5031 27.1174 12.5031C25.1904 12.5031 23.2633 12.5031 21.3362 12.5031C22.1322 9.38331 26.1958 7.03283 30.3432 7.93028Z" fill="#F1F1F1"/>
<path d="M18.8646 2.1609C19.6187 3.1011 20.2052 4.12676 20.4984 5.28064C20.5403 5.40885 20.4565 5.62253 20.3727 5.708C19.2416 7.28924 18.7808 9.08416 18.6551 11.0073C18.6132 11.4774 18.6551 11.9475 18.6551 12.503C18.2362 12.503 17.9011 12.503 17.524 12.503C17.4402 12.503 17.3145 12.3748 17.2727 12.2894C15.0942 8.74227 15.5132 5.06696 18.7808 2.20364C18.7808 2.20364 18.8227 2.20364 18.8646 2.1609Z" fill="#F1F1F1"/>
<path d="M20.1633 12.5031C19.9958 12.5031 19.8282 12.5031 19.6606 12.5031C19.3674 8.35765 21.0012 4.6396 25.6513 3.5712C25.9446 4.68234 25.9446 5.75074 25.7351 6.86188C25.6932 6.99009 25.4837 7.16103 25.3581 7.20377C23.3891 7.88755 21.8391 9.1269 20.8336 11.0073C20.5823 11.4774 20.3728 11.9902 20.1633 12.5031Z" fill="#F1F1F1"/>
<path d="M10.0672 7.20377C9.69015 6.43452 9.06176 5.79347 8.14012 5.40885C8.05633 5.36611 7.97255 5.15243 8.01444 5.02422C8.2658 3.99856 9.27122 3.05836 10.3185 2.93015C11.4915 2.75921 12.5389 3.01562 13.2929 4.08403C13.5024 4.34044 13.5024 4.55412 13.2929 4.85328C12.9997 5.28064 12.8321 5.75074 12.5808 6.22083C12.5389 6.30631 12.4551 6.47725 12.3294 6.47725C11.6172 6.73367 10.8632 6.94735 10.0672 7.20377Z" fill="#F1F1F1"/>
</svg>
