<svg width="25" height="29" viewBox="0 0 25 29" fill="none" xmlns="http://www.w3.org/2000/svg">
<path d="M24.1111 0.213188C24.2878 0.528557 24.3761 0.753821 24.5086 1.02414C22.8746 1.88014 21.2847 2.73614 19.6506 3.54709C18.944 3.86246 18.5465 4.31299 18.3699 5.07888C18.2374 5.66457 18.0166 6.25025 17.7957 6.9711C19.8273 6.9711 21.8146 6.9711 23.802 6.9711C23.802 7.33152 23.8462 7.60184 23.8462 7.87215C23.8462 11.3412 23.8462 14.8103 23.8462 18.2343C23.8462 18.7299 23.7137 19.2705 23.4929 19.676C22.9629 20.6221 22.7862 21.5682 22.8304 22.6044C22.8746 23.6857 22.8304 24.7669 22.8304 25.8482C22.8304 27.6954 21.903 28.7766 20.0922 28.8217C16.9125 28.8667 13.6885 28.8667 10.5087 28.8217C8.698 28.7766 7.77056 27.6954 7.77056 25.8932C7.77056 24.9922 7.7264 24.0461 7.77056 23.145C7.85889 21.7934 7.68223 20.532 6.97561 19.3606C6.75479 19.0002 6.75479 18.5046 6.75479 18.0541C6.71063 16.7926 6.75479 15.4861 6.75479 14.1795C6.31315 14.0894 5.91568 13.9993 5.51821 13.9092C2.82422 13.1884 0.660194 10.2599 0.748522 7.37657C0.836849 4.17783 3.00087 1.38456 5.91568 0.798873C9.58127 0.0329769 13.026 2.46582 13.6885 6.29531C13.7768 6.79089 13.9093 6.9711 14.4393 6.9711C16.8683 7.01615 16.9125 7.0612 17.6191 4.62836C17.8841 3.7273 18.3257 3.18667 19.1648 2.82625C20.7989 2.0153 22.4329 1.11424 24.1111 0.213188ZM11.7895 27.8305C14.2626 27.8305 16.5591 27.8305 18.8998 27.8305C18.8998 25.8932 18.8998 24.001 18.8998 22.1088C18.8998 19.6309 20.0039 18.1892 22.3888 17.5585C22.6096 17.5134 22.9187 17.2882 22.9187 17.153C22.9629 15.4861 22.9629 13.8191 22.9629 12.1071C17.8399 12.1071 12.8494 12.1071 7.81472 12.1071C7.81472 13.7741 7.81472 15.396 7.85889 17.0179C7.85889 17.1981 8.16803 17.4684 8.34469 17.5134C10.8179 18.1892 11.8336 19.5408 11.8778 22.1088C11.7895 24.0461 11.7895 25.9383 11.7895 27.8305ZM7.77056 11.0709C12.8494 11.0709 17.8399 11.0709 22.8746 11.0709C22.8746 9.98963 22.8746 8.95342 22.8746 7.9172C17.8399 7.9172 12.8052 7.9172 7.77056 7.9172C7.77056 8.99847 7.77056 9.98963 7.77056 11.0709ZM7.68223 18.4595C7.77056 18.7749 7.77056 19.0452 7.85889 19.1804C8.83049 20.532 8.78632 22.1088 8.74216 23.6857C8.698 24.4966 8.74216 25.3526 8.74216 26.1636C8.74216 27.4701 9.44878 28.0558 10.8179 27.7855C10.8179 25.8482 10.8179 23.9109 10.8179 21.9737C10.8179 19.9463 9.84626 18.7749 7.68223 18.4595ZM22.9187 18.5046C22.7421 18.5046 22.6537 18.4595 22.5654 18.5046C21.1522 18.82 19.6506 19.9913 19.7831 22.0187C19.9156 23.956 19.8273 25.9383 19.8273 27.8756C21.2405 28.0107 21.903 27.4701 21.903 26.1636C21.903 25.1724 21.9471 24.2263 21.903 23.2351C21.8146 21.8385 21.9471 20.532 22.7421 19.3155C22.8746 19.0903 22.8746 18.7749 22.9187 18.5046ZM1.72012 7.9172C1.80845 9.17868 2.25009 10.2599 2.86838 10.9357C3.92831 9.89952 4.94408 8.90836 5.95984 7.9172C4.59077 7.9172 3.17753 7.9172 1.72012 7.9172ZM7.77056 5.75467C8.698 4.94372 9.75793 3.99762 11.0828 2.8713C9.89042 2.37572 8.87465 1.97024 7.77056 1.47466C7.77056 3.18667 7.77056 4.62836 7.77056 5.75467ZM5.95984 6.92604C4.85575 5.84478 3.88415 4.85362 2.78005 3.77235C2.38258 4.71846 1.98511 5.75467 1.54347 6.92604C3.13336 6.92604 4.50244 6.92604 5.95984 6.92604ZM6.71063 5.97994C6.71063 4.4932 6.71063 3.09656 6.71063 1.60982C5.51821 1.74498 4.5466 2.15046 3.70749 2.91635C4.72326 3.99762 5.73903 4.98878 6.71063 5.97994ZM6.71063 13.3686C6.71063 11.7016 6.71063 10.305 6.71063 9.04352C5.78319 9.98963 4.81159 10.9808 3.66333 12.1071C4.6791 12.5126 5.6507 12.9181 6.71063 13.3686ZM8.56551 6.88099C10.1112 6.88099 11.4362 6.88099 13.026 6.88099C12.5402 5.75467 12.1428 4.76351 11.7453 3.86246C10.6412 4.89867 9.6696 5.79973 8.56551 6.88099Z" fill="#282828"/>
<path d="M11.7894 27.8305C11.7894 25.9383 11.7894 24.0461 11.7894 22.1539C11.7894 19.5859 10.7295 18.2343 8.25634 17.5585C8.03553 17.5134 7.77054 17.2431 7.77054 17.0629C7.72638 15.441 7.72638 13.8191 7.72638 12.1522C12.8052 12.1522 17.7957 12.1522 22.8745 12.1522C22.8745 13.8191 22.8745 15.5311 22.8304 17.1981C22.8304 17.3332 22.5212 17.5585 22.3004 17.6035C19.9156 18.2343 18.8115 19.6309 18.8115 22.1539C18.8115 24.0461 18.8115 25.9383 18.8115 27.8756C16.515 27.8305 14.2185 27.8305 11.7894 27.8305Z" fill="#F1F1F1"/>
</svg>
