<svg width="22" height="28" viewBox="0 0 22 28" fill="none" xmlns="http://www.w3.org/2000/svg">
<path d="M6.90089 27.3975C5.38358 27.3975 4.4732 26.7783 4.03969 25.3189C3.64952 23.948 3.25936 22.577 2.82585 21.2061C2.34898 19.7025 2.00217 18.1104 1.26519 16.6952C0.138054 14.484 0.354812 12.2286 2.08887 10.4596C2.26228 10.2827 2.47904 10.0174 2.47904 9.79628C2.47904 8.33688 3.08595 7.14283 4.08304 6.21413C5.68704 4.79895 6.51072 3.07421 6.51072 0.863008C6.51072 0.641887 6.90089 0.199646 7.11764 0.199646C9.54533 0.288094 11.7996 0.863008 13.7504 2.45508C15.3544 3.7818 16.3082 5.50654 16.3949 7.58507C16.4382 8.15999 16.6116 8.33688 17.1318 8.42533C19.9063 9.00024 21.8138 11.8748 21.2502 14.6609C21.0335 15.8108 20.4265 16.8279 20.0797 17.9777C19.2994 20.5427 18.5191 23.152 17.7388 25.717C17.4786 26.6014 16.9151 27.309 15.9613 27.3532C14.314 27.4417 12.6666 27.3532 10.9759 27.3532L6.90089 27.3975ZM2.08887 16.1203C2.21893 16.2972 2.52239 16.3857 2.69579 16.3857C4.12639 16.4299 5.55699 16.2972 6.85753 17.1375C6.94424 17.1817 7.161 17.0933 7.29105 17.049C9.76208 16.0761 12.2331 16.0761 14.6608 17.049C14.8342 17.0933 15.051 17.1375 15.181 17.0933C16.2215 16.4299 17.3919 16.4299 18.5191 16.4299C19.8196 16.4299 20.1664 16.1203 20.3832 14.7936C20.8167 12.3171 19.3428 10.0174 16.9584 9.35404C16.4816 9.22136 16.1781 9.30981 15.8746 9.70783C14.8776 11.123 13.447 11.5652 11.7996 11.521C11.3227 11.521 10.8025 11.521 10.3257 11.4326C10.0222 11.3441 9.80544 11.0346 9.58868 10.8577C9.89214 10.7692 10.1956 10.5481 10.4557 10.5481C11.1927 10.5481 11.9297 10.6808 12.6666 10.6365C14.5741 10.5481 15.5712 9.26559 15.3111 7.31973C14.8776 4.31249 12.9267 2.63197 10.3257 1.70327C9.37192 1.34947 8.37484 1.26103 7.29105 1.0399C7.20435 1.61482 7.16099 2.01283 7.11764 2.45508C6.85753 4.17982 5.94715 5.55076 4.73331 6.78904C3.0426 8.46955 2.8692 10.5923 4.2998 12.2728C4.64661 12.7151 5.21018 12.9804 5.68704 13.3342C5.94715 13.5111 6.20726 13.688 6.46737 13.8649C6.46737 13.9976 6.42402 14.086 6.42402 14.2187C6.03386 14.2187 5.60034 14.3514 5.29688 14.2187C3.99634 13.688 3.25936 12.6266 2.73914 11.3441C1.39525 12.1402 1.09179 14.7936 2.08887 16.1203ZM14.444 18.6853C14.4874 18.42 14.2706 18.1104 14.0972 17.8893C13.9672 17.7124 13.6637 17.5355 13.447 17.5355C11.7563 17.4913 10.0222 17.447 8.33149 17.5355C7.81127 17.5797 7.37775 17.9335 7.46446 18.7295C7.76792 21.2061 8.02802 23.6826 8.28813 26.2034C8.28813 26.2919 8.33148 26.3803 8.37484 26.513C10.0655 26.513 11.7563 26.513 13.5337 26.513C13.8805 23.8595 14.1839 21.2945 14.444 18.6853ZM17.1318 24.7882C17.8255 22.3559 18.5624 19.9236 19.2994 17.4028C18.4324 17.4028 17.6087 17.3586 16.8284 17.4028C15.7446 17.4913 15.3978 17.9335 15.2677 19.0833C15.0076 21.5599 14.7475 23.9922 14.4874 26.513C16.3082 26.6899 16.655 26.4688 17.1318 24.7882ZM5.03677 25.3632C5.34023 26.4245 5.94715 26.6457 7.46446 26.4688C7.3344 25.2747 7.20435 24.0807 7.07429 22.9308C6.94424 21.6926 6.68413 20.4101 6.68413 19.1718C6.64078 18.1104 6.20726 17.6239 4.99342 17.4028C4.77666 17.3586 4.55991 17.3586 4.34315 17.3586C3.82293 17.3586 3.30271 17.3586 2.65244 17.3586C3.47612 20.1447 4.25644 22.7539 5.03677 25.3632Z" fill="#282828"/>
<path d="M5.34024 14.1745C5.68705 14.3071 6.07722 14.1745 6.46738 14.1745C6.46738 14.0418 6.51073 13.9533 6.51073 13.8207C6.25062 13.6438 5.99051 13.4669 5.7304 13.29C5.25354 12.9362 4.73332 12.6708 4.34316 12.2286C2.91256 10.5039 3.08596 8.42533 4.77667 6.74482C5.99051 5.50654 6.90089 4.13559 7.161 2.41085C7.24771 2.01284 7.2477 1.5706 7.33441 0.995682C8.37484 1.2168 9.41528 1.34947 10.369 1.65904C12.9701 2.63197 14.9209 4.26827 15.3544 7.27551C15.6145 9.22137 14.6175 10.5039 12.71 10.5923C11.973 10.6365 11.236 10.5039 10.4991 10.5039C10.1956 10.5039 9.89215 10.6808 9.63204 10.8134C9.89215 11.0346 10.1089 11.3441 10.369 11.3883C10.8459 11.521 11.3661 11.4768 11.843 11.4768C13.4903 11.521 14.9209 11.0788 15.918 9.66361C16.2215 9.26559 16.5249 9.17714 17.0018 9.30982C19.3861 9.92895 20.8601 12.2728 20.4266 14.7494C20.2098 16.0761 19.8196 16.3857 18.5624 16.3857C17.392 16.3857 16.2648 16.4299 15.2244 17.049C15.0943 17.1375 14.8776 17.0933 14.7042 17.0048C12.2331 16.0319 9.76209 16.0319 7.33441 17.0048C7.20435 17.049 6.9876 17.1375 6.90089 17.0933C5.60035 16.253 4.16975 16.3857 2.73915 16.3414C2.52239 16.3414 2.21893 16.253 2.13223 16.0761C1.13515 14.7494 1.48196 12.0959 2.82586 11.2557C3.30272 12.5824 4.08305 13.6438 5.34024 14.1745ZM10.1089 3.42801C9.89215 3.33956 9.71874 3.20689 9.50198 3.20689C9.28522 3.20689 9.06847 3.33956 8.85171 3.38378C8.98176 3.6049 9.06847 3.91447 9.24187 4.00292C10.4124 4.57784 11.4094 5.32964 12.1031 6.47947C12.4065 6.96594 12.5366 7.54085 12.84 8.07154C12.9267 8.24844 13.2302 8.42533 13.4036 8.42533C13.5337 8.42533 13.6637 8.11576 13.7504 7.98309C13.1002 5.86033 11.9297 4.35671 10.1089 3.42801ZM16.8284 11.123C16.655 11.0788 16.3949 11.1672 16.1781 11.2115C16.2648 11.4326 16.3082 11.7864 16.4816 11.8748C17.4353 12.3613 17.9989 13.1573 18.1289 14.2187C18.1723 14.3956 18.389 14.5725 18.5191 14.7052C18.6925 14.5283 18.8659 14.3514 18.9526 14.2629C18.9526 12.9362 17.9555 11.521 16.8284 11.123Z" fill="#F1F1F1"/>
<path d="M13.7505 7.93886C13.1002 5.86033 11.9297 4.35671 10.1089 3.42801C9.89218 3.33956 9.71877 3.20689 9.50202 3.20689C9.28526 3.20689 9.0685 3.33956 8.85175 3.38378C8.9818 3.6049 9.0685 3.91447 9.24191 4.00292C10.4124 4.57783 11.4095 5.32964 12.1031 6.47947C12.4066 6.96593 12.5366 7.54085 12.8401 8.07154C12.9268 8.24843 13.2302 8.42533 13.4036 8.42533C13.5337 8.3811 13.6638 8.07154 13.7505 7.93886Z" fill="#282828"/>
<path d="M18.9526 14.3071C18.9526 12.9362 17.9555 11.521 16.8284 11.123C16.655 11.0788 16.3949 11.1672 16.1781 11.2114C16.2648 11.4326 16.3082 11.7864 16.4816 11.8748C17.4353 12.3613 17.9989 13.1573 18.1289 14.2187C18.1723 14.3956 18.389 14.5725 18.5191 14.7051C18.6925 14.5725 18.8659 14.3956 18.9526 14.3071Z" fill="#282828"/>
</svg>
