<svg width="27" height="27" viewBox="0 0 27 27" fill="none" xmlns="http://www.w3.org/2000/svg">
<path d="M14.0246 13.7378C14.0246 11.1691 13.9888 8.60026 14.0246 5.99424C14.0604 3.90943 14.884 2.23414 16.7458 1.34064C17.3545 1.04281 18.0707 0.893898 18.751 0.856669C19.8967 0.782212 21.0425 0.819441 22.1883 0.931127C24.0144 1.08004 25.2676 2.12245 25.9479 3.83497C26.2343 4.50509 26.3776 5.2869 26.3776 5.99424C26.4134 11.1318 26.4134 16.2322 26.3776 21.3697C26.3776 23.529 25.554 25.2788 23.6205 26.2095C23.0118 26.5073 22.2957 26.6562 21.6154 26.6935C20.4696 26.7679 19.3239 26.7307 18.1781 26.619C16.352 26.4701 15.0988 25.3905 14.3827 23.6779C14.0962 23.0078 13.9888 22.226 13.953 21.5187C14.0246 18.9126 14.0246 16.3439 14.0246 13.7378ZM25.4466 13.8495C25.4466 12.8816 25.4466 12.0253 25.4466 11.2063C25.4824 9.79158 24.9095 8.63749 23.9428 7.70677C22.4748 6.29208 20.6487 5.73364 18.7152 5.58473C17.6052 5.51027 16.531 5.69641 15.5285 6.18039C15.2062 6.3293 15.063 6.55268 15.063 6.92496C15.0988 8.19074 15.063 9.45652 15.063 10.6851C15.063 10.834 15.063 10.9829 15.0988 11.1318C19.0016 9.4193 22.2957 10.2383 25.4466 13.8495ZM25.4466 19.1732C25.4466 18.4659 25.4466 17.8702 25.4466 17.2746C25.4108 16.1205 25.0886 15.0408 24.3724 14.1474C22.6538 11.9509 20.3622 11.1318 17.7126 11.318C16.9965 11.3552 16.3162 11.5786 15.7075 12.0253C15.2778 12.3604 15.0272 12.7327 15.063 13.3283C15.0988 14.408 15.063 15.4504 15.063 16.53C15.063 16.6417 15.063 16.7906 15.0988 16.9395C17.0323 15.711 18.0707 15.7482 19.5387 15.8971C21.8302 16.1577 23.8354 17.1629 25.4466 19.1732ZM24.5515 24.2736C25.2676 23.194 25.6973 22.1515 25.2318 20.8858C24.9453 20.1412 24.5515 19.5083 23.9786 18.9871C22.1525 17.3118 20.04 16.6417 17.641 16.9395C16.7458 17.0512 15.9223 17.3863 15.3494 18.2053C15.2062 18.4287 15.0988 18.6893 15.063 18.9499C15.0272 19.955 15.063 20.9602 15.063 21.9654C15.063 22.0771 15.0988 22.1888 15.0988 22.3749C17.8916 20.0295 22.618 21.1464 24.5515 24.2736ZM15.1346 5.13798C19.0732 3.94666 22.5106 4.69124 25.4466 7.78123C25.4466 6.99942 25.4466 6.29208 25.4466 5.5475C25.375 3.6116 23.7996 1.93631 21.9735 1.89908C20.8635 1.86185 19.7177 1.89908 18.6077 1.89908C17.8916 1.89908 17.2471 2.12245 16.6742 2.56919C15.8149 3.20208 15.3136 4.05835 15.1346 5.13798ZM23.8354 25.1299C23.6563 24.832 23.5847 24.6831 23.5131 24.5714C22.0451 22.6355 20.1116 21.9282 17.82 22.1888C17.0323 22.2632 16.352 22.6355 15.7433 23.194C15.6001 23.3429 15.3852 23.4918 15.5643 23.7524C16.2088 24.832 17.1039 25.5766 18.3213 25.6511C19.5745 25.7255 20.8635 25.7255 22.1167 25.6511C22.6896 25.6138 23.2267 25.316 23.8354 25.1299Z" fill="#282828"/>
<path d="M0.633311 6.77606C0.633311 5.84534 0.561699 4.87739 0.633311 3.94667C0.776533 2.34583 2.17295 1.00559 3.7126 0.931133C5.43127 0.856676 7.18574 0.856676 8.90441 0.931133C10.3008 0.968362 11.6614 2.42029 11.8047 3.94667C11.9121 5.06353 11.8763 6.21762 11.8763 7.37172C11.8763 8.19075 11.9121 9.04701 11.7689 9.82882C11.4108 11.5786 10.086 12.6582 8.22411 12.6954C6.72027 12.7327 5.21643 12.6954 3.7126 12.621C2.13715 12.5465 0.776533 11.2063 0.633311 9.56822C0.561699 8.6375 0.633311 7.70678 0.633311 6.77606ZM6.2906 1.89908C5.53868 1.89908 4.75096 1.89908 3.99904 1.89908C2.67423 1.93631 1.60006 3.05317 1.60006 4.43064C1.56426 5.99425 1.56426 7.55786 1.60006 9.08424C1.63587 10.4617 2.67423 11.5786 3.99904 11.5786C5.50288 11.6158 7.00672 11.6158 8.51055 11.5786C9.83536 11.5413 10.9095 10.4245 10.9095 9.04701C10.9453 7.4834 10.9453 5.91979 10.9095 4.39341C10.8737 3.01595 9.83536 1.93631 8.51055 1.89908C7.79444 1.89908 7.04252 1.89908 6.2906 1.89908Z" fill="#282828"/>
<path d="M11.8778 20.8113C11.8778 21.742 11.9494 22.6355 11.8778 23.529C11.6988 25.2415 10.4097 26.5818 8.76269 26.6562C7.04402 26.7307 5.28954 26.7307 3.57087 26.6562C2.21026 26.5818 0.813837 25.1671 0.70642 23.6779C0.599003 21.8165 0.599003 19.9178 0.70642 18.0192C0.813837 16.4183 2.24606 15.0408 3.7499 15.0036C5.46857 14.9292 7.22305 14.9292 8.94172 15.0036C10.3381 15.0408 11.6988 16.4928 11.842 17.9819C11.9494 18.9126 11.8778 19.8434 11.8778 20.8113ZM10.9468 20.8113C10.9468 20.0295 10.9468 19.2849 10.9468 18.5031C10.911 17.0512 9.87267 15.9343 8.51205 15.8971C7.04402 15.8599 5.54018 15.8599 4.07215 15.8971C2.67573 15.9343 1.63737 17.0512 1.63737 18.5031C1.63737 20.0295 1.63737 21.5187 1.63737 23.045C1.63737 24.497 2.71154 25.6138 4.07215 25.6511C5.54018 25.6883 7.04402 25.6883 8.51205 25.6511C9.90847 25.6138 10.9468 24.497 10.9468 23.045C10.9468 22.3377 10.9468 21.5559 10.9468 20.8113Z" fill="#282828"/>
<path d="M25.4466 13.8495C22.3315 10.2383 19.0374 9.41929 15.0988 11.169C15.0988 11.0201 15.063 10.8712 15.063 10.7223C15.063 9.45652 15.063 8.19074 15.063 6.96219C15.063 6.55267 15.2062 6.36653 15.5285 6.21761C16.531 5.73364 17.6052 5.54749 18.7152 5.62195C20.6845 5.73364 22.4748 6.3293 23.9428 7.74399C24.9095 8.67471 25.4824 9.79158 25.4466 11.2435C25.4108 12.0625 25.4466 12.8816 25.4466 13.8495Z" fill="#F1F1F1"/>
<path d="M24.5515 24.2736C22.6538 21.1464 17.8916 20.0295 15.0988 22.3377C15.063 22.1888 15.063 22.0771 15.063 21.9282C15.063 20.923 15.0272 19.9178 15.063 18.9126C15.063 18.652 15.2062 18.3914 15.3494 18.1681C15.8865 17.349 16.7458 17.014 17.641 16.9023C20.04 16.6045 22.1525 17.2746 23.9786 18.9499C24.5515 19.4711 24.9453 20.104 25.2318 20.8485C25.6973 22.1515 25.2676 23.2312 24.5515 24.2736Z" fill="#F1F1F1"/>
<path d="M6.29057 1.89908C7.04249 1.89908 7.79441 1.89908 8.54633 1.89908C9.87114 1.93631 10.9095 3.05317 10.9453 4.39341C10.9811 5.95702 10.9811 7.52063 10.9453 9.04701C10.9453 10.4245 9.87114 11.5413 8.54633 11.5786C7.04249 11.6158 5.53865 11.6158 4.03482 11.5786C2.71001 11.5413 1.67165 10.4245 1.63584 9.08424C1.60003 7.52063 1.60003 5.95702 1.63584 4.43064C1.63584 3.05317 2.71001 1.93631 4.03482 1.89908C4.78674 1.89908 5.53865 1.89908 6.29057 1.89908ZM8.83277 6.73882C8.83277 6.44099 8.83277 6.10593 8.83277 5.8081C8.79697 4.98907 8.25988 4.24449 7.47216 4.17004C6.72024 4.09558 5.96832 4.05835 5.2164 4.13281C4.24965 4.24449 3.71257 4.95184 3.71257 5.95702C3.71257 6.51545 3.71257 7.11111 3.71257 7.66954C3.71257 8.56303 4.24965 9.27038 5.10899 9.38207C5.86091 9.45653 6.61282 9.49375 7.32894 9.4193C8.29569 9.34484 8.83277 8.63749 8.86858 7.59509C8.83277 7.29726 8.83277 7.03665 8.83277 6.73882Z" fill="#F1F1F1"/>
<path d="M10.9453 20.8113C10.9453 21.5559 10.9453 22.3005 10.9453 23.045C10.9095 24.497 9.87116 25.6138 8.51054 25.6511C7.04251 25.6883 5.53868 25.6883 4.07064 25.6511C2.67422 25.6138 1.63586 24.497 1.63586 23.045C1.63586 21.5187 1.63586 20.0295 1.63586 18.5031C1.63586 17.0512 2.71003 15.9343 4.07064 15.8971C5.53868 15.8599 7.04251 15.8599 8.51054 15.8971C9.90696 15.9343 10.9453 17.0512 10.9453 18.5031C10.9453 19.2849 10.9453 20.0667 10.9453 20.8113ZM3.67678 20.7741C3.67678 21.1091 3.67678 21.4442 3.67678 21.7793C3.71259 22.6355 4.24967 23.3429 5.0374 23.4173C5.82512 23.4918 6.64865 23.4918 7.43637 23.4173C8.2241 23.3429 8.79699 22.6355 8.83279 21.7793C8.83279 21.1091 8.83279 20.4763 8.83279 19.8061C8.79699 18.9871 8.2599 18.2798 7.47218 18.2053C6.64865 18.1308 5.82512 18.1308 5.0374 18.2053C4.24967 18.2798 3.71259 19.0243 3.67678 19.8434C3.67678 20.1412 3.67678 20.4763 3.67678 20.7741Z" fill="#F1F1F1"/>
<path d="M8.83279 6.73882C8.83279 7.03665 8.83279 7.29725 8.83279 7.59508C8.83279 8.63749 8.29571 9.34483 7.29315 9.41929C6.54123 9.49375 5.78931 9.45652 5.0732 9.38206C4.24967 9.30761 3.71258 8.56303 3.67677 7.66954C3.67677 7.11111 3.67677 6.51545 3.67677 5.95701C3.67677 4.91461 4.21386 4.20726 5.18061 4.1328C5.93253 4.05834 6.68445 4.09557 7.43637 4.17003C8.22409 4.24449 8.79699 4.98906 8.79699 5.8081C8.83279 6.10593 8.83279 6.44099 8.83279 6.73882ZM7.83023 6.77605C7.83023 6.47822 7.83023 6.14316 7.83023 5.84533C7.83023 5.43581 7.57959 5.17521 7.18573 5.17521C6.57703 5.17521 5.93253 5.17521 5.32384 5.17521C4.92997 5.17521 4.71514 5.43581 4.71514 5.8081C4.71514 6.44099 4.71514 7.11111 4.71514 7.74399C4.71514 8.15351 4.96578 8.41411 5.35964 8.41411C5.96834 8.41411 6.61284 8.41411 7.22154 8.41411C7.6154 8.41411 7.83023 8.15351 7.83023 7.78122C7.83023 7.40894 7.83023 7.07388 7.83023 6.77605Z" fill="#282828"/>
<path d="M3.67677 20.7741C3.67677 20.4763 3.67677 20.1412 3.67677 19.8434C3.71258 18.9871 4.24967 18.2798 5.03739 18.2053C5.86092 18.1308 6.68445 18.1308 7.47218 18.2053C8.22409 18.2798 8.79698 19.0243 8.83279 19.8061C8.83279 20.4763 8.83279 21.1091 8.83279 21.7793C8.79698 22.5983 8.2599 23.3429 7.43637 23.4173C6.64865 23.4918 5.82512 23.4918 5.03739 23.4173C4.24967 23.3429 3.67677 22.5983 3.67677 21.7793C3.67677 21.4442 3.67677 21.1091 3.67677 20.7741ZM7.83023 20.7741C7.83023 20.4763 7.83023 20.2157 7.83023 19.9178C7.83023 19.3966 7.6154 19.1732 7.11412 19.1732C6.54123 19.1732 5.96834 19.1732 5.39545 19.1732C4.92997 19.1732 4.71514 19.3966 4.67933 19.8806C4.67933 20.5135 4.67933 21.1091 4.67933 21.742C4.67933 22.1888 4.89417 22.4494 5.32384 22.4494C5.93253 22.4494 6.54123 22.4494 7.14992 22.4494C7.57959 22.4494 7.79443 22.1888 7.79443 21.742C7.83023 21.407 7.83023 21.1091 7.83023 20.7741Z" fill="#282828"/>
</svg>
