<svg width="76" height="64" viewBox="0 0 76 64" fill="none" xmlns="http://www.w3.org/2000/svg">
<path d="M17.3254 33.12H24.5946V58.9275C24.5946 60.9332 22.9687 62.559 20.9631 62.559C18.9575 62.559 17.3316 60.9332 17.3316 58.9275V33.12H17.3254Z" fill="#FCD8C9"/>
<path d="M50.9736 33.12H58.2427V58.9276C58.2393 60.9332 56.6108 62.5563 54.6052 62.5531C54.5991 62.5531 54.5929 62.5531 54.5866 62.5529C52.581 62.5529 50.9551 60.9271 50.9551 58.9214V33.1139L50.9736 33.12Z" fill="#FCD8C9"/>
<path d="M73.9423 58.8108C74.2953 60.4872 73.2223 62.1323 71.5459 62.4853C69.8695 62.8383 68.2244 61.7653 67.8714 60.0889L63.3243 38.429C63.0836 37.2941 62.082 36.482 60.9218 36.4811H60.3073V30.275H65.0326L68.6087 4.13566C68.8333 2.45371 70.3787 1.2724 72.0607 1.49684L72.0805 1.4996C73.7636 1.71359 74.9548 3.25175 74.7406 4.93492C74.7388 4.94906 74.737 4.96334 74.735 4.97747L71.1772 30.9202C71.0724 31.7374 70.866 32.5382 70.5627 33.3043C69.708 35.3708 69.494 37.6465 69.9483 39.8361L73.9423 58.8108Z" fill="#FCD8C9"/>
<path d="M2.04983 58.8108C1.69682 60.4872 2.76983 62.1323 4.44625 62.4853C6.12266 62.8381 7.76774 61.7653 8.12075 60.0889L12.6678 38.429C12.9085 37.294 13.9101 36.482 15.0704 36.4811H15.6848V30.275H10.9596L7.38954 4.13564C7.16541 2.4537 5.62034 1.27177 3.93839 1.4959C3.92948 1.49713 3.92057 1.49836 3.91166 1.49959C2.22834 1.71373 1.03735 3.25173 1.25149 4.93491C1.25333 4.94904 1.25518 4.96333 1.25717 4.97746L4.81493 30.9202C4.91969 31.7374 5.12615 32.5382 5.42939 33.3043C6.28411 35.3708 6.4981 37.6464 6.04386 39.8361L2.04983 58.8108Z" fill="#FCD8C9"/>
<path d="M17.3254 40.8254C19.1688 41.9929 21.811 43.5659 24.5946 45.0713V33.12H17.3254V40.8254Z" fill="#F7B199"/>
<path d="M50.9736 44.42C53.7878 42.8654 56.43 41.2924 58.2734 40.1495V33.12H50.9736V44.42Z" fill="#F7B199"/>
<path d="M56.7741 37.2123L40.6014 44.7825C38.9505 45.5554 37.0416 45.5554 35.3907 44.7825L19.218 37.2123C17.0597 36.2018 15.6802 34.0346 15.6787 31.6514V21.9982C15.6787 18.6046 18.4298 15.8535 21.8233 15.8535H54.1688C57.5623 15.8535 60.3134 18.6046 60.3134 21.9982V31.6514C60.3117 34.0346 58.9324 36.2018 56.7741 37.2123Z" fill="#FCD8C9"/>
<path d="M72.0804 1.49962C70.4003 1.26213 68.8457 2.43146 68.6083 4.11156C68.6063 4.1257 68.6044 4.13983 68.6026 4.15412L65.0325 30.275H60.3196V36.4811H60.934C62.0943 36.4821 63.0959 37.2941 63.3366 38.429L63.736 40.3215C64.0064 37.9251 64.7191 33.6177 66.3536 33.12C68.197 32.5609 71.171 9.86864 72.2033 1.51191L72.0804 1.49962Z" fill="#F16F56"/>
<path d="M57.8925 30.9326L40.798 38.9206C39.0465 39.7437 37.0194 39.7437 35.2678 38.9206L18.1734 30.9326C17.1688 30.4573 16.3033 29.7314 15.6602 28.825V31.6515C15.6618 34.0347 17.0413 36.2019 19.1996 37.2124L35.3907 44.7826C37.0416 45.5555 38.9505 45.5555 40.6014 44.7826L56.7741 37.2124C58.9324 36.2019 60.3119 34.0347 60.3134 31.6515V28.9478C59.6805 29.797 58.8493 30.4785 57.8925 30.9326Z" fill="#F16F56"/>
<path d="M57.8925 25.9327L40.798 33.9207C39.0465 34.7438 37.0194 34.7438 35.2678 33.9207L18.1734 25.9327C17.1688 25.4574 16.3033 24.7316 15.6602 23.8251V26.6516C15.6618 29.0348 17.0413 31.202 19.1996 32.2125L35.3907 39.7827C37.0416 40.5556 38.9505 40.5556 40.6014 39.7827L56.7741 32.2125C58.9324 31.202 60.3119 29.0348 60.3134 26.6516V23.948C59.6805 24.7972 58.8493 25.4786 57.8925 25.9327Z" fill="#F7B199"/>
<path d="M57.8925 20.9327L40.798 28.9207C39.0465 29.7438 37.0194 29.7438 35.2678 28.9207L18.1734 20.9327C17.1688 20.4574 16.3033 19.7316 15.6602 18.8251V21.6516C15.6618 24.0348 17.0413 26.202 19.1996 27.2125L35.3907 34.7827C37.0416 35.5556 38.9505 35.5556 40.6014 34.7827L56.7741 27.2125C58.9324 26.202 60.3119 24.0348 60.3134 21.6516V18.948C59.6805 19.7972 58.8493 20.4786 57.8925 20.9327Z" fill="#F7B199"/>
<path d="M7.38954 4.13564C7.16741 2.58013 5.8076 1.4429 4.23734 1.49959C5.30036 11.1467 7.92413 32.9909 10.2161 33.1446C12.2807 33.2859 12.4036 37.6732 12.3053 40.1863L12.6678 38.4535C12.9085 37.3186 13.9101 36.5066 15.0704 36.5057H15.6848V30.275H10.9596L7.38954 4.13564Z" fill="#F16F56"/>
<mask id="path-13-inside-1_63:2231" fill="white">
<path d="M72.4061 31.0861L75.9577 5.12498C76.2877 2.7725 74.6482 0.597903 72.2957 0.267935C72.2874 0.266706 72.2792 0.26563 72.271 0.264555C69.9134 -0.0489763 67.744 1.59656 67.4105 3.95135L63.988 29.0277H61.5731V21.9982C61.5731 17.9258 58.2719 14.6246 54.1995 14.6246H21.8233C17.751 14.6246 14.4498 17.9258 14.4498 21.9982V29.0461H12.0349L8.61234 3.95749C8.28821 1.59042 6.1067 -0.06572 3.73963 0.25841C1.37255 0.582541 -0.283585 2.76405 0.0405455 5.13112L3.58601 31.0861C3.70875 32.0078 3.94839 32.9102 4.29879 33.7714C5.0532 35.6169 5.23308 37.6471 4.81494 39.5965L0.845495 58.5589C0.607083 59.6829 0.82829 60.8556 1.45996 61.8156C2.09424 62.7651 3.07631 63.4272 4.19433 63.659C4.49358 63.7201 4.79835 63.751 5.10374 63.7511C7.15267 63.7574 8.92157 62.3176 9.33126 60.3101L13.8783 38.6564C13.9995 38.0774 14.5158 37.6668 15.1072 37.6794H16.1334V58.8907C16.2289 61.5767 18.4837 63.6768 21.1697 63.5814C23.7217 63.4906 25.7696 61.4427 25.8604 58.8907V41.6672L34.9053 45.9009C36.8871 46.8292 39.1788 46.8292 41.1606 45.9009L49.7631 41.8639V58.9214C49.8586 61.6074 52.1134 63.7075 54.7994 63.6121C57.3514 63.5213 59.3993 61.4735 59.4901 58.9214V37.7101H60.9402C61.5316 37.6975 62.0479 38.1081 62.1691 38.6871L66.7162 60.3408C67.1259 62.3483 68.8948 63.7881 70.9437 63.7818C71.2491 63.7812 71.5537 63.7504 71.8531 63.6897C72.9711 63.4579 73.9532 62.7958 74.5875 61.8463C75.2192 60.8863 75.4404 59.7136 75.202 58.5896L71.1772 39.5965C70.7641 37.6525 70.946 35.6289 71.6995 33.7898C72.0493 32.9225 72.2868 32.0138 72.4061 31.0861ZM14.4498 35.2952C12.9603 35.5495 11.7768 36.6867 11.4635 38.1648L6.91641 59.8247C6.70258 60.8427 5.70392 61.4948 4.6859 61.281C3.66789 61.0671 3.01579 60.0685 3.22962 59.0505L7.22979 40.0881C7.75424 37.6661 7.54009 35.1425 6.61532 32.8435C6.34035 32.1739 6.15248 31.4717 6.05616 30.7543L2.47997 4.79931C2.37321 3.79297 3.07708 2.88064 4.07758 2.72856C5.085 2.5817 6.02068 3.27928 6.16753 4.28685C6.16938 4.2999 6.17122 4.31311 6.17291 4.32617L9.89043 31.5286H14.4498V35.2952ZM23.3657 58.9091C23.2985 60.2378 22.167 61.2604 20.8384 61.1931C19.6037 61.1307 18.6168 60.1438 18.5544 58.9091V38.257L18.6957 38.3307L23.3657 40.512V58.9091ZM57.0138 58.9091C56.9466 60.2378 55.8151 61.2604 54.4865 61.1931C53.2519 61.1307 52.2649 60.1438 52.2025 58.9091V40.7148L57.0445 38.4597L57.0138 58.9091ZM59.0845 31.6392C59.085 32.5739 58.8162 33.4892 58.3103 34.2752C58.0651 34.6626 57.7673 35.0143 57.4255 35.3198C57.3579 35.3813 56.9032 35.7254 56.811 35.7622C56.7188 35.7991 56.3256 36.0387 56.1965 36.0879L40.0791 43.6704C38.7591 44.2879 37.2331 44.2879 35.913 43.6704L19.7403 36.1002C19.4871 35.9699 19.2409 35.8263 19.0029 35.6701C18.7146 35.4538 18.4453 35.2132 18.198 34.9511C17.401 34.0325 16.9453 32.867 16.9076 31.6515V21.9982C16.9076 19.2833 19.1085 17.0825 21.8233 17.0825H54.1688C56.8837 17.0825 59.0845 19.2833 59.0845 21.9982V31.6392ZM68.7562 40.0881L72.7379 59.0628C72.9464 60.08 72.2908 61.0737 71.2735 61.2824C70.7932 61.3808 70.2933 61.2877 69.8807 61.0229C69.4633 60.7524 69.1731 60.3247 69.0757 59.837L64.5287 38.1771C64.2198 36.6942 63.0352 35.5512 61.5424 35.2952V31.504H66.1017L69.8192 4.30159C69.955 3.28358 70.8904 2.56819 71.9084 2.70398C72.9264 2.83978 73.6418 3.77515 73.506 4.79317L69.9483 30.7605C69.851 31.4757 69.6632 32.1757 69.3891 32.8435C68.458 35.1407 68.2376 37.6643 68.7562 40.0881Z"/>
</mask>
<path d="M72.4061 31.0861L75.9577 5.12498C76.2877 2.7725 74.6482 0.597903 72.2957 0.267935C72.2874 0.266706 72.2792 0.26563 72.271 0.264555C69.9134 -0.0489763 67.744 1.59656 67.4105 3.95135L63.988 29.0277H61.5731V21.9982C61.5731 17.9258 58.2719 14.6246 54.1995 14.6246H21.8233C17.751 14.6246 14.4498 17.9258 14.4498 21.9982V29.0461H12.0349L8.61234 3.95749C8.28821 1.59042 6.1067 -0.06572 3.73963 0.25841C1.37255 0.582541 -0.283585 2.76405 0.0405455 5.13112L3.58601 31.0861C3.70875 32.0078 3.94839 32.9102 4.29879 33.7714C5.0532 35.6169 5.23308 37.6471 4.81494 39.5965L0.845495 58.5589C0.607083 59.6829 0.82829 60.8556 1.45996 61.8156C2.09424 62.7651 3.07631 63.4272 4.19433 63.659C4.49358 63.7201 4.79835 63.751 5.10374 63.7511C7.15267 63.7574 8.92157 62.3176 9.33126 60.3101L13.8783 38.6564C13.9995 38.0774 14.5158 37.6668 15.1072 37.6794H16.1334V58.8907C16.2289 61.5767 18.4837 63.6768 21.1697 63.5814C23.7217 63.4906 25.7696 61.4427 25.8604 58.8907V41.6672L34.9053 45.9009C36.8871 46.8292 39.1788 46.8292 41.1606 45.9009L49.7631 41.8639V58.9214C49.8586 61.6074 52.1134 63.7075 54.7994 63.6121C57.3514 63.5213 59.3993 61.4735 59.4901 58.9214V37.7101H60.9402C61.5316 37.6975 62.0479 38.1081 62.1691 38.6871L66.7162 60.3408C67.1259 62.3483 68.8948 63.7881 70.9437 63.7818C71.2491 63.7812 71.5537 63.7504 71.8531 63.6897C72.9711 63.4579 73.9532 62.7958 74.5875 61.8463C75.2192 60.8863 75.4404 59.7136 75.202 58.5896L71.1772 39.5965C70.7641 37.6525 70.946 35.6289 71.6995 33.7898C72.0493 32.9225 72.2868 32.0138 72.4061 31.0861ZM14.4498 35.2952C12.9603 35.5495 11.7768 36.6867 11.4635 38.1648L6.91641 59.8247C6.70258 60.8427 5.70392 61.4948 4.6859 61.281C3.66789 61.0671 3.01579 60.0685 3.22962 59.0505L7.22979 40.0881C7.75424 37.6661 7.54009 35.1425 6.61532 32.8435C6.34035 32.1739 6.15248 31.4717 6.05616 30.7543L2.47997 4.79931C2.37321 3.79297 3.07708 2.88064 4.07758 2.72856C5.085 2.5817 6.02068 3.27928 6.16753 4.28685C6.16938 4.2999 6.17122 4.31311 6.17291 4.32617L9.89043 31.5286H14.4498V35.2952ZM23.3657 58.9091C23.2985 60.2378 22.167 61.2604 20.8384 61.1931C19.6037 61.1307 18.6168 60.1438 18.5544 58.9091V38.257L18.6957 38.3307L23.3657 40.512V58.9091ZM57.0138 58.9091C56.9466 60.2378 55.8151 61.2604 54.4865 61.1931C53.2519 61.1307 52.2649 60.1438 52.2025 58.9091V40.7148L57.0445 38.4597L57.0138 58.9091ZM59.0845 31.6392C59.085 32.5739 58.8162 33.4892 58.3103 34.2752C58.0651 34.6626 57.7673 35.0143 57.4255 35.3198C57.3579 35.3813 56.9032 35.7254 56.811 35.7622C56.7188 35.7991 56.3256 36.0387 56.1965 36.0879L40.0791 43.6704C38.7591 44.2879 37.2331 44.2879 35.913 43.6704L19.7403 36.1002C19.4871 35.9699 19.2409 35.8263 19.0029 35.6701C18.7146 35.4538 18.4453 35.2132 18.198 34.9511C17.401 34.0325 16.9453 32.867 16.9076 31.6515V21.9982C16.9076 19.2833 19.1085 17.0825 21.8233 17.0825H54.1688C56.8837 17.0825 59.0845 19.2833 59.0845 21.9982V31.6392ZM68.7562 40.0881L72.7379 59.0628C72.9464 60.08 72.2908 61.0737 71.2735 61.2824C70.7932 61.3808 70.2933 61.2877 69.8807 61.0229C69.4633 60.7524 69.1731 60.3247 69.0757 59.837L64.5287 38.1771C64.2198 36.6942 63.0352 35.5512 61.5424 35.2952V31.504H66.1017L69.8192 4.30159C69.955 3.28358 70.8904 2.56819 71.9084 2.70398C72.9264 2.83978 73.6418 3.77515 73.506 4.79317L69.9483 30.7605C69.851 31.4757 69.6632 32.1757 69.3891 32.8435C68.458 35.1407 68.2376 37.6643 68.7562 40.0881Z" fill="#231F20" stroke="black" stroke-width="2" mask="url(#path-13-inside-1_63:2231)"/>
</svg>
