<svg width="13" height="24" viewBox="0 0 13 24" fill="none" xmlns="http://www.w3.org/2000/svg">
<path d="M0.366669 11.9961C0.366669 9.49025 0.366669 6.9844 0.366669 4.43459C0.366669 2.76403 1.29687 1.44516 2.77673 1.0495C3.0727 0.961572 3.36867 0.91761 3.70693 0.91761C5.01766 0.91761 6.32839 0.873647 7.63912 1.00553C8.99214 1.13742 10.1337 1.92874 10.9794 3.0278C11.7405 4.03893 12.121 5.22591 12.121 6.50082C12.121 9.35837 12.121 12.172 12.121 15.0295C12.121 18.8542 9.33039 22.2833 5.69417 22.8987C4.80625 23.0306 3.87605 23.0306 2.98814 22.9867C1.76197 22.8987 0.578078 21.5359 0.451232 20.2171C0.408951 19.6016 0.408951 18.9421 0.408951 18.3267C0.366669 16.2165 0.366669 14.1063 0.366669 11.9961ZM1.50828 7.16025C1.46599 7.24818 1.46599 7.24818 1.46599 7.29214C1.46599 8.69893 1.46599 10.0618 1.46599 11.4686C1.46599 11.7323 1.59284 11.7763 1.76197 11.7323C2.48075 11.6884 3.15726 11.6444 3.87605 11.5565C5.27135 11.3806 6.58208 10.941 7.68141 9.97384C9.37267 8.43516 10.0915 6.41289 10.2606 4.12686C10.2606 4.08289 10.2183 3.99497 10.2183 3.95101C9.58408 2.89591 8.69617 2.28044 7.51228 2.01667C7.42772 3.64327 6.92034 5.05006 5.73645 6.10516C4.468 7.20422 3.03042 7.38006 1.50828 7.16025ZM1.46599 17.7552C3.19954 17.7991 4.89081 17.6672 6.49752 17.0078C7.76597 16.4363 8.73845 15.5131 9.5418 14.3701C10.3452 13.1831 10.6834 11.8203 10.768 10.4135C10.8103 9.57818 10.768 8.69893 10.768 7.81969C10.5988 7.95157 10.5143 8.12742 10.4297 8.30327C10.0069 9.22648 9.41496 10.0618 8.65389 10.7212C7.04718 12.084 5.18678 12.6995 3.11498 12.8753C2.56532 12.9193 2.01566 12.9633 1.46599 12.9633C1.46599 14.5899 1.46599 16.1286 1.46599 17.7552ZM1.46599 18.9861C1.46599 19.3818 1.42371 19.7335 1.46599 20.0412C1.55056 20.8325 2.31163 21.6238 3.0727 21.7118C3.70693 21.7557 4.38343 21.7997 5.01766 21.7118C7.9351 21.3161 10.1337 19.118 10.5988 16.1286C10.6834 15.7329 10.6834 15.2933 10.7257 14.8097C10.5988 14.8976 10.5988 14.8976 10.5566 14.8976C10.472 15.0295 10.3874 15.1174 10.3029 15.2493C9.33039 16.5682 8.23107 17.6233 6.70893 18.1948C5.48276 18.6784 4.21431 18.8982 2.90357 18.9421C2.48075 18.9861 1.97337 18.9861 1.46599 18.9861ZM6.24383 1.88478C5.22907 1.9727 4.17202 1.9727 3.15726 2.10459C2.10022 2.23648 1.46599 3.07176 1.46599 4.17082C1.46599 4.61044 1.50828 5.0061 1.46599 5.44572C1.42371 5.75346 1.59284 5.84138 1.84653 5.88535C2.26935 5.88535 2.64988 5.92931 3.0727 5.88535C4.93309 5.79742 6.45524 3.90704 6.24383 1.88478Z" fill="#282828"/>
<path d="M1.50828 7.16025C3.03043 7.42402 4.468 7.24817 5.69417 6.14911C6.87806 5.09402 7.38544 3.68723 7.47001 2.06062C8.65389 2.3244 9.54181 2.93987 10.176 3.99496C10.2183 4.03893 10.2606 4.12685 10.2183 4.17081C10.0492 6.45685 9.37268 8.47912 7.63913 10.0178C6.53981 10.985 5.22907 11.4686 3.83378 11.6004C3.11499 11.6884 2.43848 11.6884 1.71969 11.7763C1.50828 11.7763 1.38144 11.7323 1.42372 11.5125C1.42372 10.1057 1.42372 8.74289 1.42372 7.3361C1.466 7.24817 1.466 7.20421 1.50828 7.16025Z" fill="#F1F1F1"/>
<path d="M1.46598 18.9861C1.97336 18.9861 2.43846 18.9861 2.94584 18.9861C4.25658 18.9421 5.52503 18.7223 6.7512 18.2387C8.27334 17.6672 9.41494 16.6121 10.3451 15.2933C10.4297 15.1614 10.5143 15.0735 10.5988 14.9416C10.5988 14.9416 10.6411 14.8976 10.768 14.8536C10.7257 15.3372 10.7257 15.7329 10.6411 16.1725C10.1337 19.162 7.93508 21.3601 5.05993 21.7557C4.4257 21.8437 3.7492 21.7997 3.11497 21.7557C2.3539 21.7118 1.59283 20.9204 1.50827 20.0852C1.4237 19.6895 1.46598 19.3818 1.46598 18.9861Z" fill="#F1F1F1"/>
</svg>
