<svg width="31" height="30" viewBox="0 0 31 30" fill="none" xmlns="http://www.w3.org/2000/svg">
<path d="M29.1759 14.131C29.2697 15.6341 29.0352 17.0434 28.4722 18.3586C27.1116 21.6938 24.5782 23.8076 21.3879 25.2168C18.9014 26.2972 16.2272 26.673 13.553 26.4381C9.04906 26.0623 5.20197 24.2773 2.48086 20.5664C1.12031 18.6874 0.510403 16.5266 0.557319 14.178C1.4018 14.178 2.24628 14.178 3.09077 14.178C3.37226 10.467 5.06123 7.6486 8.57991 6.33333C12.0986 4.97109 15.195 5.95754 17.8223 8.68202C17.8692 8.5411 17.9631 8.40018 18.01 8.25926C18.9483 5.76965 19.9335 3.28004 20.8718 0.74345C20.9187 0.649502 20.9187 0.461606 21.0126 0.414633C21.2002 0.320685 21.4348 0.179764 21.6225 0.226738C21.7632 0.273711 21.904 0.555554 21.904 0.74345C21.9509 0.884371 21.8101 1.07227 21.7632 1.21319C20.8718 3.56188 19.9804 5.86359 19.089 8.21228C19.0421 8.35321 18.9952 8.44715 18.9483 8.68202C20.9187 8.07136 22.6546 8.49413 24.2498 9.66847C24.3436 9.6215 24.4374 9.52755 24.5313 9.48058C26.2202 8.07136 27.8623 6.70912 29.5043 5.29991C29.8796 4.97109 30.1611 4.97109 30.3957 5.25293C30.6772 5.62872 30.4426 5.86359 30.1611 6.09846C28.5191 7.4607 26.924 8.82294 25.2819 10.1852C25.1881 10.1382 25.0942 10.1852 25.0942 10.1852C25.5165 11.0777 25.8918 11.9702 26.2671 12.8157C26.361 13.0976 26.4079 13.3794 26.4079 13.7082C26.4079 14.037 26.5486 14.131 26.877 14.131C27.6277 14.084 28.3783 14.131 29.1759 14.131ZM26.8301 19.3451C18.7606 19.3451 10.8319 19.3451 2.80927 19.3451C5.76496 23.6667 9.94046 25.4986 14.9135 25.4517C19.8397 25.4047 23.9213 23.5257 26.8301 19.3451ZM28.1907 15.1644C19.2767 15.1644 10.4565 15.1644 1.44872 15.1644C1.6833 16.0569 1.91787 16.9024 2.10554 17.748C2.19937 18.1238 2.38703 18.2647 2.80927 18.2647C10.8319 18.2647 18.8545 18.2647 26.877 18.2647C26.9709 18.2647 27.0647 18.3116 27.1585 18.2647C27.2993 18.2177 27.44 18.1707 27.4869 18.0298C27.8623 17.1373 28.0968 16.1978 28.1907 15.1644ZM4.076 14.131C4.35749 14.131 4.59207 14.131 4.77973 14.131C5.62422 14.131 5.62422 14.131 5.81188 13.3324C5.81188 13.2385 5.81188 13.1915 5.8588 13.0976C6.37487 10.4201 8.81449 8.30623 11.5356 8.35321C13.8814 8.35321 15.9457 9.71545 16.884 11.9702C17.1655 12.6278 17.2593 13.3794 17.4939 14.131C17.9161 14.131 18.3384 14.131 18.8075 14.131C18.9952 11.8762 17.4001 9.05781 15.195 7.78952C12.6147 6.33333 10.0343 6.33333 7.54776 7.93044C5.34272 9.33965 4.26366 11.4535 4.076 14.131ZM16.321 14.084C16.4148 12.5339 15.3827 10.7489 13.8814 9.95031C12.1455 9.01084 10.4565 9.10479 8.8614 10.2791C7.54776 11.2186 6.93786 12.4869 6.84402 14.131C7.26627 14.131 7.68851 14.131 8.06383 14.131C8.34533 14.131 8.48608 14.084 8.53299 13.7552C8.76757 12.4869 9.47131 11.5474 10.738 11.2186C12.0048 10.8898 13.1307 11.1716 14.0221 12.1581C14.4913 12.7218 14.7259 13.3794 14.8197 14.084C15.2889 14.084 15.8049 14.084 16.321 14.084ZM23.4053 10.2791C22.0447 9.10479 19.7458 9.10479 18.7606 9.76242C19.1359 10.9368 19.5582 12.0172 19.9335 13.1445C21.0595 12.252 22.1855 11.3126 23.4053 10.2791ZM24.1559 10.9837C22.9361 12.0172 21.7632 13.0036 20.4965 14.084C22.2324 14.084 23.8275 14.084 25.4227 14.084C25.3288 12.9097 24.9535 11.8762 24.1559 10.9837ZM13.6937 14.084C13.5999 12.8627 12.6147 11.9702 11.4887 12.0641C10.4096 12.1581 9.47131 13.0976 9.51822 14.084C10.8788 14.084 12.2393 14.084 13.6937 14.084Z" fill="#282828"/>
<path d="M21.341 26.626C21.6225 26.8139 21.904 27.0018 22.1855 27.1897C21.4348 28.1762 20.5434 28.8338 19.3236 28.9747C18.7606 29.0217 18.2446 29.0217 17.6816 29.0217C15.5234 29.0217 13.3653 29.0217 11.2072 29.0217C9.89356 29.0217 8.81449 28.5989 7.87618 27.6594C7.78235 27.5655 7.73543 27.4715 7.6416 27.3776C7.59469 27.3306 7.54777 27.2367 7.50085 27.1427C7.78235 26.9548 8.01693 26.8139 8.20459 26.673C8.76758 27.0488 9.28365 27.4715 9.79973 27.7534C10.1751 27.9413 10.5973 27.9413 11.0195 27.9883C13.3653 27.9883 15.7111 27.9413 18.01 28.0352C19.4174 28.0352 20.5434 27.7064 21.341 26.626Z" fill="#282828"/>
<path d="M4.07599 14.131C4.21674 11.4535 5.2958 9.33966 7.50084 7.93044C9.98737 6.33333 12.5677 6.33333 15.1481 7.78952C17.3531 9.01084 18.9014 11.8293 18.7606 14.131C18.2915 14.131 17.8692 14.131 17.447 14.131C17.2593 13.4264 17.1186 12.6748 16.8371 11.9702C15.8988 9.71545 13.8345 8.35321 11.4887 8.35321C8.76756 8.35321 6.32794 10.4201 5.81187 13.0976C5.81187 13.1915 5.81187 13.2385 5.76495 13.3324C5.62421 14.131 5.62421 14.131 4.73281 14.131C4.59206 14.131 4.4044 14.131 4.07599 14.131Z" fill="#F1F1F1"/>
<path d="M16.321 14.084C15.8049 14.084 15.2889 14.084 14.7728 14.084C14.679 13.3794 14.4444 12.6748 13.9752 12.1581C13.0838 11.1716 11.9578 10.8428 10.6911 11.2186C9.4244 11.5474 8.72066 12.4869 8.48608 13.7552C8.43917 14.084 8.29842 14.178 8.01693 14.131C7.6416 14.131 7.26628 14.131 6.79712 14.131C6.89095 12.4869 7.54777 11.1716 8.81449 10.2791C10.4096 9.15176 12.1455 9.05781 13.8345 9.95031C15.3827 10.7489 16.4148 12.5339 16.321 14.084Z" fill="#F1F1F1"/>
<path d="M23.4053 10.2791C22.2324 11.2656 21.0595 12.252 19.9335 13.1915C19.5582 12.0641 19.1829 10.9368 18.7606 9.80939C19.6989 9.10479 22.0447 9.15176 23.4053 10.2791Z" fill="#F1F1F1"/>
<path d="M24.156 10.9837C24.9535 11.8762 25.3288 12.8627 25.4227 14.084C23.8275 14.084 22.2324 14.084 20.4965 14.084C21.7632 13.0036 22.9361 12.0172 24.156 10.9837Z" fill="#F1F1F1"/>
<path d="M13.6937 14.084C12.2863 14.084 10.8788 14.084 9.51823 14.084C9.47131 13.0976 10.4096 12.1111 11.4887 12.0641C12.5678 11.9702 13.553 12.8627 13.6937 14.084Z" fill="#F1F1F1"/>
</svg>
