<svg width="32" height="18" viewBox="0 0 32 18" fill="none" xmlns="http://www.w3.org/2000/svg">
<path d="M7.80061 11.2647C7.43224 11.7814 7.06386 12.2981 6.69549 12.7678C5.49827 14.1301 3.97872 14.8347 2.22894 15.1165C1.9987 15.1635 1.81451 15.1635 1.58428 15.2105C1.16986 15.2105 0.939622 15.0226 0.985669 14.5998C1.26195 11.8284 2.45917 9.66757 4.89966 8.30533C4.99175 8.25835 5.0378 8.21138 5.08384 8.16441C5.08384 8.16441 5.12989 8.11743 5.17594 8.07046C5.08384 8.02348 4.9457 7.92953 4.85361 7.88256C2.36708 6.61427 1.2159 4.4065 0.985669 1.68202C0.939622 1.25926 1.12381 1.07136 1.63033 1.07136C2.91964 1.07136 4.20895 1.30623 5.31408 2.05781C6.5113 2.80939 7.34014 3.93676 8.03085 5.15808C8.07689 5.25203 8.12294 5.39295 8.21503 5.4869C8.21503 5.4869 8.26108 5.53387 8.30713 5.53387C8.35318 5.43992 8.39922 5.39295 8.44527 5.299C9.68854 2.90334 11.6225 1.44715 14.2472 1.02439C14.6616 0.977413 15.076 0.930438 15.5365 0.930438C18.2993 0.930438 21.0161 0.883465 23.7789 0.930438C26.6798 0.977412 28.9361 2.19873 30.4557 4.68834C31.1464 5.76874 31.4687 6.99006 31.5608 8.30533C31.6529 9.80849 31.6069 11.3586 30.9622 12.7678C29.7189 15.5393 27.6008 17.2304 24.6077 17.3713C21.3384 17.5122 18.023 17.5122 14.7537 17.3713C11.6225 17.2304 9.4583 15.4453 8.21503 12.486C8.03085 12.1572 7.93875 11.7344 7.80061 11.2647ZM19.5886 16.5727C21.1082 16.5727 22.6738 16.5727 24.1933 16.5727C27.0022 16.5257 29.4887 14.5528 30.3176 11.8284C30.4097 11.4995 30.3636 11.4056 30.0413 11.2647C27.1403 10.1843 24.1473 9.85546 21.1082 9.76151C18.8058 9.66757 16.4574 9.76151 14.1551 10.0903C12.4514 10.3252 10.7476 10.701 9.08993 11.3117C8.85969 11.4056 8.81364 11.4995 8.85969 11.7814C9.64249 14.4119 12.2672 16.5257 14.9839 16.5727C16.5495 16.6197 18.0691 16.5727 19.5886 16.5727ZM1.95265 2.01084C2.18289 4.2186 3.28801 5.95663 5.08384 6.94309C5.59036 7.22493 6.18897 7.41282 6.74153 7.64769C6.87967 7.74164 7.06386 7.92954 7.06386 8.07046C7.06386 8.21138 6.87967 8.39927 6.74153 8.49322C6.64944 8.58717 6.5113 8.58717 6.41921 8.63414C5.22199 9.05691 4.20895 9.71454 3.42616 10.701C2.59731 11.7344 2.18289 12.8618 1.9987 14.1771C2.7815 14.1301 3.61034 13.8952 4.43919 13.4255C6.74153 12.1102 8.07689 9.62059 7.70852 6.75519C7.52433 5.299 5.68245 2.6215 3.28801 2.19873C2.82755 2.10478 2.41312 2.05781 1.95265 2.01084ZM10.1951 4.31255C11.3462 4.5944 12.1751 5.15808 12.7276 6.14453C13.2802 7.08401 13.3723 8.16441 13.4183 9.2448C14.2472 9.15086 14.9839 9.00993 15.7667 9.00993C16.4574 8.96296 16.7798 8.58717 16.9639 8.02348C17.3323 6.94309 17.3784 5.86269 17.056 4.78229C16.5495 3.09123 15.3063 2.10478 13.6025 2.2457C12.2672 2.33965 11.2081 3.23216 10.1951 4.31255ZM22.0291 8.82204C23.1342 8.91599 24.2394 9.00993 25.3445 9.19783C25.7129 9.2448 25.8971 9.10388 26.0812 8.82204C26.1273 8.72809 26.1733 8.58717 26.2194 8.49322C26.7259 7.03703 26.6338 5.58084 26.0812 4.12466C25.7129 3.23215 25.1143 2.48058 24.1933 2.15176C23.0882 1.77597 21.937 2.01084 20.7398 1.91689C23.1342 3.88979 23.3184 6.23848 22.0291 8.82204ZM17.6547 8.82204C17.7928 8.82204 17.9309 8.82204 18.0691 8.82204C18.7598 8.82204 19.4965 8.77506 20.1872 8.77506C20.6938 8.77506 21.0161 8.58717 21.2924 8.21138C22.4435 6.47335 22.0291 3.84281 20.2333 2.71544C19.4965 2.2457 18.6677 2.01084 17.7928 1.91689C17.2863 1.86992 16.7798 1.91689 16.2732 1.91689C18.3914 3.93676 18.5756 6.23848 17.6547 8.82204ZM26.1733 2.38663C26.9561 3.37308 27.3245 4.50045 27.4166 5.76874C27.5087 6.99006 27.4166 8.21138 26.818 9.33875C28.1073 9.71454 29.3506 10.0434 30.5938 10.3722C31.1464 5.90966 28.752 3.23216 26.1733 2.38663ZM8.62946 10.3722C9.87272 10.0434 11.0699 9.76152 12.2672 9.4327C12.3593 9.38573 12.4974 9.2448 12.4974 9.15086C12.4974 8.68112 12.4514 8.21138 12.3593 7.74164C12.129 6.42637 11.2081 5.43992 10.0109 5.20506C9.78063 5.15808 9.59644 5.11111 9.4583 5.39295C8.53736 6.99006 8.53736 8.68112 8.62946 10.3722Z" fill="#282828"/>
<path d="M1.95265 2.01083C2.41312 2.05781 2.82754 2.15176 3.24196 2.19873C5.59036 2.62149 7.43223 5.299 7.66247 6.75519C8.03084 9.57362 6.69548 12.1102 4.39314 13.4255C3.56429 13.8952 2.73545 14.1301 1.95265 14.1771C2.13684 12.8618 2.55126 11.7344 3.38011 10.701C4.1629 9.71454 5.17593 9.05691 6.37315 8.63414C6.46525 8.58717 6.60339 8.58717 6.69548 8.49322C6.83362 8.3523 7.01781 8.21138 7.01781 8.07046C7.01781 7.92953 6.83362 7.69466 6.69548 7.64769C6.14292 7.36585 5.59036 7.22493 5.03779 6.94308C3.24196 5.90966 2.18289 4.2186 1.95265 2.01083Z" fill="#F1F1F1"/>
<path d="M10.1951 4.31255C11.2081 3.23216 12.2211 2.33966 13.6025 2.19873C15.2602 2.05781 16.5495 3.04426 17.056 4.73532C17.3784 5.81572 17.3323 6.89611 16.964 7.97651C16.7798 8.5402 16.4574 8.96296 15.7667 8.96296C14.9839 9.00994 14.2011 9.10388 13.4183 9.19783C13.3723 8.11743 13.2802 7.08401 12.7276 6.09756C12.1751 5.15808 11.3923 4.5944 10.1951 4.31255Z" fill="#F1F1F1"/>
<path d="M22.0291 8.82204C23.3184 6.19151 23.1342 3.88979 20.6938 1.91689C21.891 2.01084 23.0421 1.72899 24.1473 2.15176C25.0682 2.48058 25.6668 3.23216 26.0352 4.12466C26.5878 5.53387 26.6798 6.99006 26.1733 8.49323C26.1273 8.58717 26.0812 8.72809 26.0352 8.82204C25.897 9.10388 25.7129 9.29178 25.2984 9.19783C24.2854 9.05691 23.1342 8.96296 22.0291 8.82204Z" fill="#F1F1F1"/>
<path d="M17.6546 8.82204C18.5756 6.23848 18.3914 3.93676 16.3193 1.91689C16.8258 1.91689 17.3323 1.86991 17.8388 1.91689C18.7137 1.96386 19.5426 2.2457 20.2793 2.71544C22.0291 3.84281 22.4896 6.42637 21.3384 8.21138C21.0621 8.58717 20.7398 8.82204 20.2333 8.77506C19.5426 8.72809 18.8058 8.82204 18.1151 8.82204C17.9309 8.86901 17.7928 8.82204 17.6546 8.82204Z" fill="#F1F1F1"/>
<path d="M26.1733 2.38663C28.752 3.18518 31.1464 5.90966 30.5938 10.3722C29.3506 10.0434 28.1073 9.71454 26.818 9.33875C27.4626 8.21138 27.5087 6.99006 27.4166 5.76874C27.3245 4.54742 26.9561 3.37308 26.1733 2.38663Z" fill="#F1F1F1"/>
<path d="M8.62945 10.3722C8.53736 8.68112 8.53736 6.99006 9.4583 5.39295C9.64248 5.11111 9.82667 5.15808 10.0109 5.20506C11.2081 5.43993 12.129 6.3794 12.3593 7.74164C12.4513 8.21138 12.4974 8.68112 12.4974 9.15086C12.4974 9.24481 12.3593 9.4327 12.2672 9.4327C11.0699 9.76152 9.87272 10.0903 8.62945 10.3722Z" fill="#F1F1F1"/>
</svg>
