<svg width="27" height="26" viewBox="0 0 27 26" fill="none" xmlns="http://www.w3.org/2000/svg">
<path d="M24.765 8.25204C25.2715 9.80217 25.8701 11.2114 26.1924 12.6676C27.3896 18.3514 24.8571 22.673 19.3314 24.2231C15.0951 25.3975 10.8127 25.3505 6.66852 23.8004C2.75454 22.3442 0.866613 19.2439 0.958707 15.0163C1.00475 12.8555 1.46522 10.8356 2.47826 8.95664C2.70849 8.48691 2.66244 8.20506 2.29407 7.87625C0.958707 6.60795 0.636379 5.05782 1.18894 3.36676C1.78755 1.53478 3.16896 0.54833 5.01084 0.407409C6.53038 0.313461 7.77365 1.01807 8.64854 2.28636C8.97087 2.70913 9.15506 2.7561 9.66157 2.61518C12.3323 1.76965 15.0491 1.81662 17.7198 2.61518C17.95 2.66215 18.3644 2.5682 18.5026 2.42728C20.0682 0.219513 22.9691 -0.250224 24.9031 1.44083C26.8831 3.17886 26.9292 5.99729 24.9952 8.01717C24.9031 8.11111 24.765 8.25204 24.765 8.25204ZM17.3975 24.1292C17.9961 24.0352 18.5947 23.8943 19.1933 23.7064C23.5217 22.2502 26.1003 19.2909 25.5478 13.8889C24.9491 8.20506 20.3905 3.50768 14.7728 2.99097C8.78668 2.42728 3.3071 6.32611 1.87965 12.2448C0.590333 17.5059 2.89268 22.2502 8.37226 23.7064C8.37226 23.7064 11.1811 24.458 13.7137 24.411C15.1872 24.3641 16.5226 24.2231 17.3975 24.1292ZM19.0551 3.27281C19.9761 3.93045 20.897 4.5411 21.7719 5.24571C22.6468 5.95032 23.4756 6.7019 24.3505 7.50046C25.2254 6.84282 25.778 5.43361 25.4096 4.11834C25.0412 2.70913 23.844 1.58175 22.5547 1.44083C20.9431 1.25294 19.6998 1.91057 19.0551 3.27281ZM8.04993 3.17886C7.26713 1.76965 5.88573 1.06504 4.59641 1.29991C2.93872 1.58175 1.87965 2.61518 1.55732 4.30623C1.41918 5.6215 2.10988 6.74887 3.07686 7.54743C4.36618 5.66848 5.97782 4.21229 8.04993 3.17886Z" fill="#282828"/>
<path d="M19.0552 3.27281C19.6998 1.91057 20.9431 1.25293 22.5547 1.44083C23.8441 1.58175 25.0413 2.70912 25.4097 4.11834C25.778 5.4336 25.2255 6.84282 24.3506 7.50045C23.4757 6.74887 22.6468 5.95031 21.7719 5.24571C20.8971 4.5411 19.9761 3.93044 19.0552 3.27281Z" fill="#F1F1F1"/>
<path d="M8.23414 3.13189C6.11598 4.16531 4.41225 5.66847 3.07689 7.54742C1.87967 6.79584 1.3271 5.48058 1.55734 4.16531C1.87967 2.47426 2.98479 1.34689 4.68853 1.06504C6.02389 0.924123 7.4053 1.72268 8.23414 3.13189Z" fill="#F1F1F1"/>
<path d="M23.3375 13.1373C23.3375 16.0497 21.0812 17.7407 18.8249 16.6134C17.3974 15.9088 16.5226 14.6874 16.2923 13.1373C16.2002 12.3388 16.2002 11.3993 16.4765 10.6477C17.1672 8.6748 19.5156 7.97019 21.2654 9.23848C22.6007 10.178 23.3835 11.5402 23.3375 13.1373Z" fill="#282828"/>
<path d="M6.57641 8.6748C7.12897 8.43993 7.72758 8.39295 8.32619 8.4869C9.61551 8.81572 10.5364 9.75519 10.8127 11.1644C11.1351 12.8085 10.8588 14.3116 9.66155 15.5799C8.55643 16.7543 7.17502 17.177 5.8857 16.7073C4.59639 16.1906 3.76755 14.9223 3.81359 13.3252C3.85964 11.6811 4.4122 10.131 5.74756 9.14453C6.02385 8.95664 6.30013 8.81572 6.57641 8.6748Z" fill="#282828"/>
<path d="M13.2993 21.1229C13.2993 20.0894 13.2993 19.103 13.2993 18.1635C13.2993 17.9756 13.069 17.7877 12.9309 17.6468C12.7006 17.4119 12.4244 17.224 12.2402 16.9422C11.4574 15.8618 11.9178 14.9223 13.2072 14.8284C13.2993 14.8284 13.4374 14.8284 13.5295 14.8284C14.3123 14.8284 15.2332 14.8284 15.5095 15.7678C15.7397 16.5664 15.1411 17.1771 14.4965 17.6468C14.3123 17.7877 14.1281 18.0696 14.082 18.3044C14.036 19.15 14.082 20.2773 14.082 21.1229C15.4174 21.4517 15.8779 20.9819 16.4765 19.7606C16.5686 19.6197 16.6607 19.3848 16.983 19.3848C17.2593 20.5122 16.6607 21.5926 15.6937 21.6396C14.2662 21.7335 12.8388 21.7335 11.4574 21.6396C10.7667 21.5926 10.122 20.7001 10.2602 20.0425C10.3062 19.9015 10.3983 19.5727 10.5364 19.5257C10.6285 19.4788 10.8588 19.7606 10.9048 19.9015C11.135 21.2168 12.1481 21.1229 13.2993 21.1229Z" fill="#282828"/>
</svg>
